<svg width="870" height="1200" viewBox="0 0 870 1200" fill="none" xmlns="http://www.w3.org/2000/svg">
<rect width="870" height="1200" fill="#F5F5F5"/>
<path d="M10 10H860V1190H10V10Z" fill="#FFFCDF" stroke="#A62825" stroke-width="20"/>
<path d="M355 858L289.5 685.5V679L304.5 649L384 685.5L454 706L502.5 693L538 679L554.5 706L545.5 722.5L563 750.5L642.5 907.5L648 977.5L430.5 1051L343 1023C347 1003.83 355 963.6 355 956V858Z" fill="white" stroke="#FFE1B5"/>
<path d="M145.5 816L274 689.5C300.833 727.5 354.5 804.8 354.5 810C354.5 815.2 351.167 893.833 349.5 932.5C351.167 967.5 353.5 1038.3 349.5 1041.5C344.5 1045.5 187.5 972.5 177.5 962.5C169.5 954.5 148.833 909.5 139.5 888L145.5 816Z" fill="#AE1C1C"/>
<path d="M641 903.5L548 719.5L561.5 714L641 753L693.5 802.5C707.833 824.167 736.5 869.2 736.5 876C736.5 882.8 691.833 927.5 669.5 949L641 903.5Z" fill="#AE1C1C"/>
<path d="M145.5 816L274 689.5C300.833 727.5 354.5 804.8 354.5 810C354.5 815.2 351.167 893.833 349.5 932.5C351.167 967.5 353.5 1038.3 349.5 1041.5C344.5 1045.5 187.5 972.5 177.5 962.5C169.5 954.5 148.833 909.5 139.5 888L145.5 816Z" stroke="#FFE1B5"/>
<path d="M641 903.5L548 719.5L561.5 714L641 753L693.5 802.5C707.833 824.167 736.5 869.2 736.5 876C736.5 882.8 691.833 927.5 669.5 949L641 903.5Z" stroke="#FFE1B5"/>
<path d="M309.5 608.5L335.5 564L355 561L365 591.5L399.5 626.5L440.5 643.5L461.5 671L468 704L403.5 695.5L320.5 657.5L309.5 608.5Z" fill="#FEE5C7" stroke="#FFE1B5"/>
<path d="M380.5 379.5L250 469.5C260.667 498.333 283 557.9 287 565.5C291 573.1 316 572 328 570.5L348 556C353.5 563.167 364.9 579.9 366.5 589.5C368.5 601.5 368.5 611 384.5 623C397.3 632.6 418.833 640.667 428 643.5L509 652.5C519.833 648.167 543 638.5 549 634.5C556.5 629.5 553 600.5 559.5 570.5C564.7 546.5 571.667 533.5 574.5 530L569.5 495.5L586.5 425.5L553 372L463.5 352L380.5 379.5Z" fill="#FEE5C7" stroke="#FFE1B5"/>
<g filter="url(#filter0_i_0_1)">
<path d="M139 258L241.5 172L315 150.5L394 104.5L470.5 109L547.5 146L598 157.5L655.5 211.5V265C642.833 278.667 611.3 306.8 586.5 310C555.5 314 575 337.5 576 363C576.8 383.4 569 377.5 565 372L482 352.5L428.5 363L324.5 408.5L249.5 482.5L221 363H170L132.5 321.5L139 258Z" fill="white"/>
</g>
<path d="M139 258L241.5 172L315 150.5L394 104.5L470.5 109L547.5 146L598 157.5L655.5 211.5V265C642.833 278.667 611.3 306.8 586.5 310C555.5 314 575 337.5 576 363C576.8 383.4 569 377.5 565 372L482 352.5L428.5 363L324.5 408.5L249.5 482.5L221 363H170L132.5 321.5L139 258Z" stroke="black"/>
<path fill-rule="evenodd" clip-rule="evenodd" d="M406.826 95.1673C386.323 98.1973 360.488 107.571 339.809 119.482C308.731 137.386 295.647 142.762 266.201 149.736C214.904 161.887 185.065 178.222 153.427 211.468C103.967 263.445 94.1166 329.451 130.013 368.393C144.381 383.98 159.503 390.282 185 391.306C202.34 392.002 206.559 392.859 208.578 396.094C213.832 404.503 222.256 439.112 222.256 452.275C222.256 459.729 223.739 470.032 225.552 475.169C229.663 486.821 229.813 508.156 225.851 517.64C219.453 532.955 201.101 541.902 185.751 537.189C178.889 535.084 178.311 535.275 178.32 539.645C178.342 552.082 193.4 564.393 215.115 569.726C225.693 572.321 226.134 573.839 221.133 590.325C210.147 626.543 230.845 645.077 270.493 634.525C277.084 632.772 282.929 631.788 283.481 632.339C284.933 633.794 279.624 650.601 274.476 660.838C265.448 678.796 245.426 699.942 205.177 734.026C159.562 772.656 145.148 787.321 129.908 810.605C113.094 836.294 107.135 853.078 107.008 875.104C106.911 892.078 107.599 895.235 114.435 909.161C128.866 938.559 170.931 973.862 230.909 1006.92C242.313 1013.2 292.245 1038.62 341.868 1063.39C426.942 1105.86 432.668 1108.38 442.177 1107.46C460.395 1105.72 599.147 1029.19 650.548 992.539C682.647 969.654 713.796 943.5 726.902 928.431C740.804 912.449 762.781 880.382 762.781 876.082C762.781 870.824 731.888 818.788 721.115 805.899C702.671 783.834 679.619 768.695 630.651 746.491C589.112 727.656 578.717 720.368 569.234 703.436C555.105 678.214 549.096 673.399 527.126 669.712C519.835 668.488 518.886 667.601 518.886 662.011C518.886 656.665 519.984 655.456 526.027 654.147C537.455 651.673 551.889 644.138 555.365 638.83C557.131 636.136 560.504 622.469 562.864 608.457C565.222 594.445 570.763 571.824 575.177 558.188L583.202 533.396L579.321 514.232C574.876 492.279 575.379 488.286 585.902 461.983C591.191 448.766 593.592 439.246 593.592 431.5C593.592 420.892 593.918 420.237 599.195 420.237C606.053 420.237 615.257 415.66 620.867 409.462C625.831 403.977 626.158 404.305 612.269 400.794C601.017 397.946 589.763 389.269 582.738 378.017C579.471 372.785 579.326 370.216 581.565 357.143C585.078 336.614 586.339 333.406 591.982 330.668C594.68 329.358 606.282 323.907 617.762 318.554C629.243 313.202 643.297 304.67 648.992 299.594C669.139 281.645 678.861 250.815 672.707 224.391C666.146 196.222 643.886 166.429 621.309 155.603C615.128 152.639 601.667 148.803 591.395 147.078C570.622 143.586 553.785 136.329 525.21 118.548C489.919 96.5911 450.228 88.7513 406.826 95.1673ZM425.116 120.177C411.594 124.406 401.181 131.481 381.669 149.692C371.527 159.163 359.09 168.36 352.006 171.632C340.879 176.776 337.111 177.292 309.048 177.543C272.936 177.866 263.415 179.927 235.44 193.493C217.805 202.044 211.466 206.696 194.577 223.485C181.143 236.84 172.633 247.416 168.63 255.73C137.556 320.251 169.047 368.799 224.453 341.79C238.446 334.97 257.162 317.194 263.562 304.648C267.794 296.353 268.684 295.837 283.028 293.325C291.296 291.88 305.477 289.265 314.541 287.518C332.895 283.98 332.75 284.525 311.893 297.621C301.179 304.349 243.559 355.556 238.373 362.959C235.29 367.36 235.319 370.155 238.674 392.38C240.711 405.889 243.438 424.357 244.73 433.421C247.63 453.739 249.823 457.252 255.281 450.315C260.851 443.234 322.803 396.619 345.808 382.2C367.429 368.648 394.596 356.657 422.207 348.481C437.139 344.058 447.526 342.707 474.02 341.74C510.352 340.413 529.518 343.188 554.96 353.458C562.112 356.345 568.302 358.371 568.713 357.96C569.124 357.547 565.547 348.743 560.766 338.393C550.873 316.981 545.253 297.379 545.253 284.29C545.253 273.291 542.783 271.471 515.59 262.454C489.509 253.805 453.81 247.908 437.719 249.589C430.824 250.31 414.38 254.761 401.174 259.481C376.583 268.272 349.737 274.24 341.972 272.645C339.418 272.12 343.844 270.16 352.65 267.914C373.03 262.717 392.82 252.377 418.168 233.685C456.218 205.628 469.566 204.839 507.405 228.425C527.567 240.991 542.7 246.491 557.338 246.57C573.422 246.655 584.716 242.786 593.232 234.269C601.529 225.973 603.627 226.012 601.516 234.425C598.927 244.737 587.429 255.194 574.571 258.934C560.249 263.098 561.374 266.721 578.339 271.069C584.311 272.599 589.198 274.572 589.198 275.451C589.198 276.33 584.995 278.505 579.86 280.282L570.521 283.517L579.31 287.549C616.292 304.512 652.852 270.19 643.921 226.891C640.513 210.381 635.27 200.834 623.805 190.265C610.265 177.784 601.694 175.438 575.848 177.132C543.697 179.239 536.936 176.413 507.46 148.556C489.069 131.176 480.968 125.085 471.553 121.563C457.675 116.371 439.066 115.815 425.116 120.177ZM445.043 373.532C440.114 389.28 432.641 401.024 418.465 415.296C408.746 425.082 404.941 430.039 408.606 428.143C422.822 420.791 450.36 421.958 468.162 430.668C473.921 433.482 476.226 436.145 476.734 440.562C477.323 445.664 476.611 446.604 472.177 446.604C469.285 446.604 459.654 444.132 450.771 441.111C426.311 432.792 421.835 433.408 367.824 452.522L351.894 458.16V468.37C351.894 495.012 366.095 566.302 375.75 588.128C384.218 607.273 404.846 620.201 451.626 635.683C477.452 644.231 497.625 645.268 517.095 639.047C534.563 633.468 537.879 629.072 543.031 604.669C545.44 593.265 551.528 571.949 556.562 557.302L565.714 530.672L561.102 511.309L556.49 491.947L562.128 476.417C574.353 442.75 574.564 441.924 572.464 435.928C569.416 427.224 563.477 427.833 544.181 438.83C525.634 449.399 522.182 450.454 520.507 446.055C518.433 440.601 523.098 433.946 533.106 428.079C538.718 424.79 542.939 420.984 542.484 419.622C542.029 418.26 533.816 414.052 524.23 410.273C503.305 402.024 473.767 387.256 457.848 377.085C447.558 370.509 446.113 370.109 445.043 373.532ZM322.807 434.974C325.54 435.499 329.495 435.48 331.596 434.93C333.697 434.381 331.46 433.95 326.626 433.974C321.792 433.999 320.074 434.449 322.807 434.974ZM541.922 448.929C538.279 449.99 531.494 454.752 526.844 459.513C515.805 470.818 514.287 481.855 520.817 503.353C523.379 511.793 525.478 520.61 525.478 522.948C525.478 528.749 516.73 532.298 502.433 532.298C487.957 532.298 485.551 535.189 495.158 541.045C507.333 548.47 525.524 545.609 535.2 534.748C539.329 530.116 539.336 529.694 535.469 517.416C533.289 510.494 531.067 503.689 530.533 502.294C529.989 500.87 532.535 499.104 536.328 498.271C543.93 496.601 546.261 493.204 548.125 481.084C549.729 470.664 548.182 466.38 542.821 466.38C540.533 466.38 538.661 465.411 538.661 464.224C538.661 460.504 549.441 459.168 556.351 462.031C564.804 465.534 566.191 464.013 561.976 455.864C557.252 446.73 553.701 445.501 541.922 448.929ZM284.447 455.297C273.061 462.24 269.473 469.706 269.666 486.061C269.875 503.891 276.944 518.868 293.326 536.189C310.324 554.163 325.694 560.552 335.204 553.598C341.613 548.911 338.88 540.601 329.478 536.185C319.665 531.573 317.806 524.757 320.711 504.034C322.877 488.579 320.792 472.837 315.512 464.778C311.674 458.92 299.76 451.014 294.766 451.014C292.953 451.014 288.31 452.941 284.447 455.297ZM415.894 457.76C402.447 463.141 387.05 480.001 387.05 489.341C387.05 495.566 396.848 493.087 404.747 484.863C418.421 470.629 437.106 464.604 452.419 469.493C460.239 471.989 458.635 464.894 450.222 459.764C442.503 455.057 425.173 454.044 415.894 457.76ZM289.088 473.176C280.037 483.176 286.106 512.098 301.034 530.122L305.565 535.594L304.322 521.311C303.139 507.761 303.425 506.592 309.907 498.486C317.883 488.513 317.542 490.137 313.629 480.767C308.492 468.474 296.655 464.813 289.088 473.176ZM425.226 477.333C420.291 479.326 411.22 490.627 411.22 494.782C411.22 496.131 408.748 498.361 405.727 499.739C402.706 501.114 400.234 502.909 400.234 503.727C400.234 505.32 424.41 512.522 429.761 512.522C435.873 512.522 443.7 507.631 446.135 502.29C454.352 484.254 442.656 470.295 425.226 477.333ZM523.726 560.924C518.89 569.521 514.836 570.396 485.246 569.207C465.629 568.418 458.789 567.254 451.408 563.442C431.584 553.205 432.648 560.842 453.517 578.592C474.609 596.528 487.549 602.562 504.984 602.588C526.565 602.623 531.481 596.618 539.593 560.313C540.836 554.74 540.417 554.27 534.207 554.27C528.998 554.27 526.622 555.778 523.726 560.924ZM337.836 574.709C335.002 576.781 333.376 582.477 331.928 595.429C330.829 605.253 328.39 619.929 326.507 628.046L323.086 642.798L330.19 650.128C339.458 659.691 364.823 672.723 393.642 682.731C417.768 691.109 447.939 696.409 451.456 692.891C454.39 689.958 443.946 668.517 434.483 658.043C428.528 651.453 420.969 646.859 404.96 640.104C378.244 628.83 366.552 617.842 355.287 593.417C351.004 584.129 347.5 575.478 347.5 574.191C347.5 570.983 342.569 571.249 337.836 574.709ZM493.617 580.499L476.039 581.754L484.828 584.478C495.553 587.805 508.912 588.018 514.636 584.955C519.936 582.118 520.189 578.304 515.041 578.842C512.927 579.064 503.285 579.811 493.617 580.499ZM302.148 669.031L295.251 680.382L299.951 687.345C302.537 691.177 312.902 706.554 322.985 721.519C342.103 749.899 361.782 787.699 369.178 810.252C385.974 861.465 384.089 919.012 363.845 973.058C359.69 984.154 356.289 994.255 356.289 995.505C356.289 999.579 387.527 1006.91 404.897 1006.91C413.051 1006.91 413.167 1006.78 414.705 996.525C417.137 980.3 413.951 912.541 409.047 876.17C395.215 773.63 393.242 754.812 394.183 734.446C394.712 722.965 395.549 712.205 396.042 710.533C396.65 708.472 391.278 705.251 379.36 700.525C353.527 690.283 336.32 680.519 322.664 668.348C315.998 662.404 310.206 657.572 309.795 657.61C309.384 657.649 305.943 662.787 302.148 669.031ZM516.728 698.371C495.261 713.137 487.751 715.407 457.363 716.316C427.238 717.217 418.73 719.322 416.45 726.444C412.648 738.318 415.437 771.334 423.252 807.008C442.755 895.995 446.313 922.51 446.354 979.217L446.376 1009.75L463.405 1008.43C484.235 1006.81 543.543 992.132 578.014 980.065C607.82 969.63 639.735 955.333 639.735 952.415C639.735 950.125 622.682 904.185 620.157 899.674C619.109 897.799 617.54 900.118 615.708 906.25C607.624 933.305 598.495 942.188 558.83 961.593C524.357 978.457 513.911 980.803 497.794 975.312C492.046 973.352 483.782 971.75 479.432 971.75C469.232 971.75 462.731 967.075 459.555 957.453C452.854 937.152 470.874 918.572 488.245 927.871C494.89 931.426 499.699 942.657 498.139 950.973C496.456 959.94 498.757 961.573 512.626 961.256C526.765 960.933 537.947 955.64 569.141 934.498C597.042 915.586 607.13 904.158 610.068 888.127C613.335 870.309 583.903 806 545.266 746.531C524.346 714.332 523.403 711.735 530.865 706.846C533.948 704.827 538.492 703.702 540.959 704.348C545.398 705.508 545.402 705.446 541.392 698.56C535.82 688.989 530.428 688.947 516.728 698.371ZM247.525 727.439C205.836 764.83 175.492 795.607 168.568 807.52C151.476 836.935 147.097 870.059 157.38 892.148C174.204 928.289 242.603 970.226 319.454 991.521L334.316 995.641L334.297 990.836C334.259 982.023 307.96 907.215 297.462 886.057C291.764 874.576 286.733 864.194 286.28 862.986C285.829 861.777 291.958 867.143 299.901 874.908C307.866 882.698 317.542 895.011 321.482 902.374L328.621 915.72L332.354 903.635C343.637 867.104 337.77 815.65 316.767 766.933C306.833 743.892 281.877 701.406 278.418 701.652C277.137 701.744 263.235 713.348 247.525 727.439ZM560.427 733.398C564.479 740.62 572.945 753.947 579.238 763.01C614.007 813.086 639.605 861.549 653.826 904.218C658.161 917.228 661.707 929.282 661.707 931.004C661.707 937.636 665.807 935.924 679.492 923.573C704.308 901.174 711.451 880.977 704.719 852.226C696.352 816.481 677.493 795.471 631.739 770.916C597.405 752.49 573.173 737.867 569.357 733.268C567.795 731.387 563.488 727.689 559.788 725.055L553.058 720.263L560.427 733.398ZM537.464 790.377C533.302 794.537 532.069 798.077 532.069 805.857C532.069 825.501 549.893 833.808 561.767 819.698C566.724 813.807 567.491 811.218 566.494 803.77C564.25 787.057 548.191 779.648 537.464 790.377ZM446.537 792.97C430.58 813.255 457.086 839.653 473.647 819.97C481.352 810.814 481.1 801.792 472.913 793.603C464.302 784.992 453.025 784.719 446.537 792.97Z" fill="black"/>
<defs>
<filter id="filter0_i_0_1" x="131.98" y="103.992" width="528.02" height="383.487" filterUnits="userSpaceOnUse" color-interpolation-filters="sRGB">
<feFlood flood-opacity="0" result="BackgroundImageFix"/>
<feBlend mode="normal" in="SourceGraphic" in2="BackgroundImageFix" result="shape"/>
<feColorMatrix in="SourceAlpha" type="matrix" values="0 0 0 0 0 0 0 0 0 0 0 0 0 0 0 0 0 0 127 0" result="hardAlpha"/>
<feOffset dx="50" dy="4"/>
<feGaussianBlur stdDeviation="2"/>
<feComposite in2="hardAlpha" operator="arithmetic" k2="-1" k3="1"/>
<feColorMatrix type="matrix" values="0 0 0 0 0 0 0 0 0 0 0 0 0 0 0 0 0 0 0.25 0"/>
<feBlend mode="normal" in2="shape" result="effect1_innerShadow_0_1"/>
</filter>
</defs>
</svg>
