<svg width="292" height="478" viewBox="0 0 292 478" fill="none" xmlns="http://www.w3.org/2000/svg">
<rect width="292" height="478" fill="#F5F5F5"/>
<ellipse cx="180" cy="411.5" rx="70" ry="35.5" fill="#560000"/>
<path d="M230 328.5C226.8 319.3 214.667 301 209 293L243.5 306L254 324.5L258.5 344L265.5 363L276 390.5L283 433L250 450L234.5 455.5L230 450V440L239 433L243.5 424.5L250 418V412.5L239 396.5L230 382.5V357.5C230 353.5 234 340 230 328.5Z" fill="#E8CAAF" stroke="#EFE4E4"/>
<path d="M50 313L74 296C85 303.5 98.5 319.5 104 332.5C109.5 345.5 102.5 351 102.5 355C102.5 359 95 370.5 87 378.5C79 386.5 80.5 391.5 78 402C76.6671 407.598 67.8005 408.933 60.874 408.882C63.9015 410.326 68.2201 412.925 78 417C96 424.5 89.5 419 97 420.5C104.5 422 104.5 415 113.5 409.5C122.5 404 124 406.5 138 406C152 405.5 145 409.5 147 415C148.6 419.4 140 421.5 135.5 422C135.833 423 137.8 425.5 143 427.5C149.5 430 161 429 170 441C179 453 155 446.5 151 446C147 445.5 138 445 128 452C118 459 120 456 115 455.5C110 455 95.5 452.5 66 450.5C36.5 448.5 22 445.5 13 434C4.00001 422.5 19 400.5 20.5 394.5C22 388.5 27.5 373.5 29 368.5C30.2 364.5 43.5 329.833 50 313Z" fill="#E8CAAF"/>
<path d="M74 296L50 313C43.5 329.833 30.2 364.5 29 368.5C27.5 373.5 22 388.5 20.5 394.5C19 400.5 4.00001 422.5 13 434C22 445.5 36.5 448.5 66 450.5C95.5 452.5 110 455 115 455.5C120 456 118 459 128 452C138 445 147 445.5 151 446C155 446.5 179 453 170 441C161 429 149.5 430 143 427.5C137.8 425.5 135.833 423 135.5 422C140 421.5 148.6 419.4 147 415C145 409.5 152 405.5 138 406C124 406.5 122.5 404 113.5 409.5C104.5 415 104.5 422 97 420.5C89.5 419 96 424.5 78 417C60 409.5 60.5 407 53.5 407.5C46.5 408 75.5 412.5 78 402C80.5 391.5 79 386.5 87 378.5C95 370.5 102.5 359 102.5 355C102.5 351 109.5 345.5 104 332.5C98.5 319.5 85 303.5 74 296Z" stroke="#EFE4E4"/>
<path d="M113 270C113 268.8 118 255.833 120.5 249.5L140 257L171.5 271.5L172.5 294.5L126.5 286C122 281.167 113 271.2 113 270Z" fill="#E8CAAF" stroke="#EFE4E4"/>
<path d="M83.5 243L71.5 187.5L167.385 127.201L175.5 123L235.5 160L227 187.5V217L224.5 233.5L204 257.5L194 268C180.167 265.667 152 260.7 150 259.5C148 258.3 128.5 252.667 119 250L83.5 243Z" fill="#E8CAAF"/>
<path d="M168.5 126.5L167.385 127.201M167.385 127.201L71.5 187.5L83.5 243L119 250C128.5 252.667 148 258.3 150 259.5C152 260.7 180.167 265.667 194 268L204 257.5L224.5 233.5L227 217V187.5L235.5 160L175.5 123L167.385 127.201Z" stroke="#EFE4E4"/>
<g filter="url(#filter0_i_0_1)">
<path d="M241.5 94L223 80.5L185 58L136.5 71L50 94L46.5 51L94.5 15.5L142 6.5L215 15.5L241.5 30L245 37.5L268 73.5L241.5 94Z" fill="url(#paint0_linear_0_1)"/>
</g>
<path d="M241.5 94L223 80.5L185 58L136.5 71L50 94L46.5 51L94.5 15.5L142 6.5L215 15.5L241.5 30L245 37.5L268 73.5L241.5 94Z" stroke="#EFE4E4"/>
<g filter="url(#filter1_d_0_1)">
<path d="M58.5 119.5L90 101L114.154 86.4162C133.026 75.0222 154.753 69 176.797 69V69C187.656 69 198.321 72.2141 207.356 78.2372L225 90" stroke="#EFE4E4"/>
</g>
<ellipse cx="169.5" cy="408.5" rx="12.5" ry="7.5" fill="#364B25"/>
<path d="M178 247C175.038 247 172.076 235.788 172.483 233.58L196 235.5C193.333 238.833 187.8 245.8 187 247C186 248.5 181 247 178 247Z" fill="white"/>
<path d="M172.5 233.5C172 235.5 175 247 178 247C181 247 186 248.5 187 247C187.8 245.8 193.333 238.833 196 235.5L171.5 233.5" stroke="#EFE4E4"/>
<ellipse cx="217.417" cy="435.258" rx="25.1507" ry="4.5" transform="rotate(-16 217.417 435.258)" fill="#D9D9D9"/>
<ellipse cx="151" cy="195.5" rx="10" ry="10.5" fill="white"/>
<ellipse cx="207" cy="191.5" rx="10" ry="10.5" fill="white"/>
<g filter="url(#filter2_i_0_1)">
<path d="M121 406.5L120 393L130.5 382L174.5 380C185.667 381.333 208.8 384.2 212 385C216 386 240.5 399 241 400.5C241.5 402 247 408.5 248 410C248.8 411.2 246 413.833 244.5 415H233L227 412.5L220 408.5H212L206.5 412.5L203.5 406.5L198 400.5L190 402L184 410L177.5 402L169 399L160 400.5L150 399L147 402L141 406.5H121Z" fill="#C1B8B8"/>
</g>
<path d="M285 333L255 324M120 393L121 406.5H141L147 402L150 399L160 400.5L169 399L177.5 402L184 410L190 402L198 400.5L203.5 406.5L206.5 412.5L212 408.5H220L227 412.5L233 415H244.5C246 413.833 248.8 411.2 248 410C247 408.5 241.5 402 241 400.5C240.5 399 216 386 212 385C208.8 384.2 185.667 381.333 174.5 380L130.5 382L120 393Z" stroke="#EFE4E4"/>
<path fill-rule="evenodd" clip-rule="evenodd" d="M145.074 0.43333C116.633 2.46633 89.9363 11.3613 68.0823 26.0873C59.3453 31.9743 41.8493 48.6333 35.4053 57.2013C25.3253 70.6043 17.7623 86.4043 13.8593 102.213C11.3423 112.412 11.9223 116.481 16.6393 121.702C21.7663 127.377 28.7123 130.03 39.8313 130.56L49.0883 131.001L50.5603 136.132C52.3153 142.244 56.0743 168.409 56.0743 174.507C56.0743 178.391 55.5543 179.312 50.7023 184.034C31.2613 202.953 37.4583 229.28 62.0743 232.344C68.3163 233.12 70.0743 234.144 70.0743 237.002C70.0743 239.339 64.0023 245.492 59.1843 248.037C55.9233 249.76 55.8393 249.961 56.3103 254.862C56.8873 260.869 59.0883 264.156 65.4063 268.443C71.6403 272.673 79.3143 274.18 90.3813 273.346C98.8333 272.708 99.1463 272.758 98.1673 274.588C96.0553 278.535 79.2073 288.724 60.5743 297.323C51.7483 301.396 42.2823 311.368 37.2033 321.942C33.6753 329.286 30.0743 342.215 30.0743 347.537C30.0743 348.56 27.4003 354.766 24.1313 361.329C5.62629 398.487 -4.66372 438.469 2.07328 447.033C4.37228 449.956 14.9793 454.62 26.5743 457.805C37.9773 460.938 60.7133 461.464 79.2643 459.024L92.9543 457.224L97.2643 461.902C100.532 465.449 102.904 466.975 107.074 468.214C115.055 470.584 128.905 472.493 151.074 474.278C161.799 475.142 172.891 476.255 175.723 476.752C183.068 478.042 186.961 476.618 195.866 469.381C206.469 460.765 207.851 459.976 213.678 459.212C218.51 458.579 218.892 458.698 220.854 461.454C223.672 465.411 232.669 470.266 235.069 469.124C236.066 468.65 238.89 465.779 241.344 462.744C247.081 455.649 252.483 452.812 268.574 448.443C293.591 441.65 293.42 441.904 288.539 418.788C285.084 402.425 279.383 386.219 270.589 367.762C263.904 353.732 263.159 351.551 262.73 344.762C262.177 336 258.817 326.28 253.052 316.762C244.945 303.377 238.958 298.707 224.104 294.179C206.895 288.934 204.232 287.834 203.552 285.692C202.091 281.09 197.958 277.812 191.003 275.741C187.192 274.606 184.074 273.246 184.074 272.72C184.074 272.193 186.887 271.76 190.324 271.758C198.511 271.753 202.503 269.397 205.189 262.985C208.425 255.26 209.291 254.15 215.807 249.366C223.045 244.053 227.19 238.74 230.042 231.119C232.596 224.291 232.59 221.545 230.001 214.169C228.358 209.49 228.005 206.494 228.302 199.762C228.63 192.297 229.22 190.044 233.138 181.262C237.357 171.806 237.775 171.245 240.837 170.949C243.452 170.696 244.074 170.195 244.074 168.348C244.074 165.161 242.142 159.798 239.766 156.39C238.095 153.992 237.742 151.761 237.632 142.89C237.507 132.798 237.31 131.859 233.717 124.262C230.629 117.734 230.043 115.553 230.532 112.407C231.698 104.908 233.225 103.317 241.593 100.886C256.67 96.5053 265.969 90.7333 269.76 83.4033C275.937 71.4573 258.211 42.1283 234.046 24.3133C216.968 11.7233 192.875 3.32033 166.574 0.779331C156.756 -0.168669 154.095 -0.21167 145.074 0.43333ZM111.074 19.1423C96.6413 22.4663 85.4733 27.6263 73.5413 36.4823C61.8363 45.1703 57.2313 51.9383 56.3403 61.7613C55.6603 69.2693 57.9063 74.0653 63.8773 77.8523C70.4543 82.0233 77.8433 83.3003 87.4543 81.9263C101.962 79.8523 115.43 71.8743 130.111 56.6583C142.726 43.5843 152.287 40.8203 167.94 45.7213C173.866 47.5763 176.605 47.9083 181.94 47.4193L188.574 46.8103L191.368 52.8013C196.375 63.5383 205.267 66.9863 222.171 64.7493C231.117 63.5653 232.089 63.6103 235.629 65.3673C241.017 68.0433 243.574 71.9313 243.574 77.4503C243.574 81.4993 243.141 82.3693 239.574 85.4833L235.574 88.9763L242.684 88.5943C248.583 88.2773 250.419 87.7373 253.455 85.4213C258.221 81.7853 260.13 78.7623 260.797 73.7923C262.213 63.2343 251.723 51.7623 240.653 51.7623H237.168L237.744 46.9003C238.532 40.2463 236.778 35.6663 231.622 30.9133C226.366 26.0683 221.048 23.2513 213.394 21.2573C201.83 18.2453 190.529 20.4123 179.574 27.7413C176.274 29.9493 172.449 31.7473 171.074 31.7373C169.699 31.7273 165.481 29.7153 161.7 27.2663C150.048 19.7183 145.563 18.4223 130.074 18.1303C121.808 17.9743 114.441 18.3663 111.074 19.1423ZM162.574 71.8653C137.567 74.7973 120.046 82.3663 93.0293 101.908C86.1793 106.864 76.1873 113.841 70.8243 117.415C65.4613 120.988 61.0743 124.236 61.0743 124.634C61.0743 125.031 61.9613 129.418 63.0443 134.384C64.1283 139.349 65.4813 147.653 66.0523 152.837C67.8953 169.594 66.8003 168.932 77.3963 159.689C94.4133 144.844 112.09 134.68 132.969 127.737C148.502 122.572 159.696 120.769 176.259 120.765C197.123 120.76 211.098 124.525 223.15 133.396C228.521 137.351 229.074 137.557 229.074 135.611C229.074 134.431 227.049 129.75 224.574 125.21C219.491 115.884 219.114 112.877 221.639 101.774C223.086 95.4143 223.077 94.6973 221.525 92.3283C218.353 87.4873 203.894 78.1293 193.574 74.2383C186.322 71.5043 173.818 70.5473 162.574 71.8653ZM167.327 136.512C165.106 139.674 160.623 144.803 157.365 147.908L151.44 153.555L155.203 154.683C159.56 155.988 163.074 159.937 163.074 163.528C163.074 165.894 162.879 165.98 159.324 165.188C157.262 164.729 152.424 164.368 148.574 164.386C142.282 164.416 140.614 164.895 132.074 169.119L122.574 173.819L119.92 180.335C115.77 190.518 111.18 197.411 103.324 205.252C99.3363 209.232 96.0743 213.059 96.0743 213.757C96.0743 214.455 97.0113 216.542 98.1563 218.394L100.237 221.762H97.2283C95.0633 221.762 93.5503 220.908 91.8363 218.717L89.4523 215.671L84.7633 217.681C82.1843 218.786 80.0743 219.954 80.0743 220.276C80.0743 222.193 83.5843 227.049 86.6713 229.404C91.5723 233.142 99.8803 233.777 105.506 230.843C107.668 229.715 109.535 228.898 109.653 229.027C109.772 229.156 111.468 231.999 113.421 235.344C118.329 243.748 122.269 247.301 131.574 251.711C147.254 259.143 160.716 262.383 180.284 263.435C194.468 264.198 196.031 263.615 199.135 256.398C200.691 252.781 203.658 249.117 209.35 243.781C217.743 235.914 222.056 228.947 222.052 223.262C222.051 221.612 221.386 217.787 220.574 214.762C219.762 211.737 219.092 207.261 219.086 204.816L219.074 200.37L215.949 205.316C214.23 208.036 212.318 210.612 211.699 211.04C210.652 211.764 205.151 211.388 198.921 210.166C191.093 208.631 192.07 186.916 200.373 177.896C202.638 175.434 207.892 172.762 210.465 172.762C213.39 172.762 217.939 177.838 219.677 183.042L221.421 188.262L223.375 183.806C224.45 181.355 225.385 177.08 225.452 174.306C225.571 169.379 225.481 169.216 221.574 167.262C218.523 165.737 215.735 165.288 209.824 165.371L202.074 165.48V162.812C202.074 159.883 203.755 157.236 206.05 156.552C206.975 156.276 205.669 155.041 202.55 153.245C193.386 147.966 183.484 140.99 177.864 135.853C174.8 133.053 172.084 130.762 171.829 130.762C171.573 130.762 169.547 133.35 167.327 136.512ZM136.086 158.739C135.223 160.353 135.308 160.609 136.551 160.133C137.389 159.811 138.074 158.921 138.074 158.155C138.074 156.202 137.327 156.421 136.086 158.739ZM139.574 175.331C132.832 178.831 128.891 184.152 127.09 192.191C125.273 200.298 128.231 205.169 130.609 197.985C132.161 193.297 132.556 193.467 132.757 198.907C132.978 204.872 136.147 211.804 140.218 215.23C143.096 217.651 143.322 217.685 146.309 216.141C148.414 215.052 150.749 214.72 153.577 215.107C157.598 215.659 157.806 215.549 159.538 211.97C164.226 202.285 161.971 184.892 155.09 177.658C151.874 174.277 150.801 173.763 146.979 173.768C144.556 173.772 141.224 174.475 139.574 175.331ZM207.148 188.173C205.034 190.721 204.679 196.51 206.469 199.243C208.408 202.202 210.161 202.432 212.341 200.012C216.289 195.631 215.107 186.762 210.575 186.762C209.334 186.762 207.792 187.397 207.148 188.173ZM146.645 189.333C144.072 191.907 144.579 199.358 147.529 202.307C153.63 208.409 160.455 202.154 157.158 193.482C155.101 188.074 149.942 186.037 146.645 189.333ZM194.829 220.616C189.385 223.316 189.479 224.762 195.098 224.762C197.989 224.762 199.284 224.239 200.081 222.749C202.134 218.913 200.005 218.048 194.829 220.616ZM157.074 229.908C157.074 230.539 158.987 233.162 161.324 235.737C163.661 238.312 167.149 242.488 169.074 245.016C173.426 250.732 178.578 253.762 183.944 253.762C189.805 253.762 193.306 250.179 197.585 239.8C199.504 235.145 201.074 231.231 201.074 231.101C201.074 230.971 199.392 231.567 197.336 232.426C194.421 233.644 190.905 233.898 181.36 233.58C170.687 233.225 168.739 232.891 166.138 230.967C162.999 228.647 157.074 227.955 157.074 229.908ZM176.321 240.012C176.946 241.899 184.099 243.105 187.324 241.867C192.159 240.011 190.415 238.762 182.991 238.762C177.77 238.762 176.016 239.091 176.321 240.012ZM119.681 258.344C119.347 259.214 119.074 261.407 119.074 263.218C119.074 265.029 118.394 268.438 117.562 270.795C116.173 274.734 116.191 275.234 117.792 277.003C120.19 279.652 134.009 286.134 143.074 288.861C148.156 290.39 153.314 291.141 159.074 291.19L167.574 291.262L167.362 287.582C167.094 282.922 163.612 275.454 160.046 271.887C158.165 270.006 154.339 268.262 147.935 266.363C142.786 264.837 134.693 262.053 129.95 260.175C119.935 256.211 120.463 256.306 119.681 258.344ZM105.364 282.916L103.21 285.07L113.586 296.166C119.293 302.269 126.39 310.412 129.359 314.262C142.086 330.77 152.499 353.37 154.56 368.96L155.181 373.657L171.377 373.46C185.43 373.288 188.93 373.581 197.821 375.67C207.917 378.042 208.099 378.049 210.178 376.17C214.249 372.488 216.076 367.318 216.05 359.552C216.028 352.882 214.913 345.268 213.795 344.149C213.545 343.9 211.751 345.285 209.807 347.229C204.536 352.5 199.074 351.721 199.074 345.697C199.074 342.482 202.179 338.298 205.872 336.536C210.175 334.484 209.864 331.001 204.463 320.759C201.854 315.811 199.456 311.762 199.134 311.762C198.812 311.762 198.104 312.763 197.561 313.987C197.018 315.211 195.388 316.872 193.939 317.678C191.583 318.988 191.028 318.962 188.689 317.429C186.884 316.247 186.074 314.835 186.074 312.874C186.074 309.463 189.515 304.762 192.011 304.762C193.384 304.762 193.951 303.679 194.438 300.122C195.49 292.446 195.185 287.099 193.62 285.801C191.763 284.259 183.438 281.731 182.688 282.481C182.375 282.794 183.459 284.576 185.097 286.441C186.734 288.306 188.074 290.698 188.074 291.758C188.074 299.377 167.881 303.044 149.418 298.777C137.232 295.961 122.978 290.199 114.969 284.851C111.601 282.602 108.547 280.762 108.182 280.762C107.817 280.762 106.549 281.731 105.364 282.916ZM87.5743 293.056C85.3743 294.269 83.4733 295.288 83.3493 295.321C83.2253 295.353 86.1713 298.503 89.8963 302.321C98.0373 310.665 101.899 317.18 106.175 329.783C110.336 342.045 111.343 358.172 108.584 368.364C106.467 376.186 100.905 385.075 95.1253 389.876L90.8513 393.427L93.5303 402.344C97.2483 414.717 98.3653 417.762 99.1863 417.762C99.5773 417.762 101.1 416.331 102.572 414.582C104.887 411.831 105.16 410.824 104.603 407.105C103.067 396.865 113.721 386.988 134.207 379.66L143.074 376.488V372.816C143.074 362.905 135.255 341.223 126.395 326.568C118.601 313.675 97.4003 290.708 93.3843 290.806C92.3883 290.831 89.7743 291.843 87.5743 293.056ZM202.666 302.012C203.57 303.8 205.306 306.612 206.523 308.262C212.02 315.712 217.274 326.202 221.048 337.262C223.3 343.862 225.553 349.924 226.054 350.733C228.065 353.98 228.418 350.216 226.829 342.461C224.683 331.988 217.212 316.868 209.067 306.512C202.724 298.447 199.837 296.417 202.666 302.012ZM218.545 304.614C226.814 315.557 233.929 329.267 236.538 339.285C239.275 349.792 238.016 371.696 233.936 384.554C232.917 387.766 233.044 387.988 239.233 393.759C244.421 398.599 246.211 399.681 249.081 399.718C256.782 399.815 267.147 405.23 270.502 410.909L272.146 413.693L266.631 410.792C261 407.83 253.091 406.016 251.119 407.234C250.403 407.677 250.899 408.954 252.548 410.914C256.738 415.893 255.99 418.448 248.074 426.191C243.478 430.687 241.074 433.818 241.074 435.307C241.074 436.882 239.548 438.671 236.074 441.167C231.381 444.538 229.953 446.951 231.928 448.172C232.397 448.462 233.292 447.579 233.915 446.211C234.984 443.864 238.582 441.762 241.528 441.762C242.256 441.762 243.147 443.337 243.508 445.262C243.869 447.187 244.524 448.762 244.964 448.762C246.774 448.762 249.208 444.743 249.295 441.613C249.346 439.77 249.974 436.912 250.691 435.262L251.996 432.262L252.035 436.12C252.072 439.789 252.204 439.946 254.725 439.314C258.462 438.376 271.326 431.185 274.455 428.285C275.932 426.916 277.074 424.77 277.074 423.362C277.074 417.894 261.142 374.248 255.137 363.262C251.513 356.634 251.289 355.703 250.92 345.762C250.544 335.64 250.361 334.916 245.838 325.632C238.316 310.194 231.172 303.591 219.036 300.865L215.033 299.965L218.545 304.614ZM64.3373 307.147C53.3323 315.249 44.6923 331.601 43.0593 347.419C42.4203 353.604 41.5573 356.621 39.4913 359.894C31.2683 372.92 16.0743 417.058 16.0743 427.919C16.0743 436.739 21.6193 440.048 41.9053 443.332C52.9083 445.113 76.7003 446.69 93.5743 446.758C103.322 446.797 106.392 447.177 109.933 448.784C115.665 451.385 116.01 451.342 122.025 447.295C130.558 441.553 136.106 440.65 145.984 443.397C154.862 445.865 159.977 443.7 155.29 439.457C152.702 437.115 143.638 433.343 135.574 431.252C125.918 428.748 124.895 428.128 125.264 425.004C125.523 422.816 126.321 422.192 130.08 421.237C136.206 419.683 138.814 418.156 139.606 415.662C140.662 412.335 138.971 411.591 133.176 412.833C130.292 413.452 127.008 413.716 125.878 413.421C122.534 412.547 113.847 416.427 108.028 421.394C98.8983 429.187 99.0973 429.113 92.4163 427.189C89.2033 426.264 80.4843 423.133 73.0413 420.232C56.1253 413.637 52.5313 412.652 42.5743 411.881L34.5743 411.262L38.5663 408.781C41.5103 406.951 44.3293 406.2 49.3083 405.919L56.0593 405.537L60.4273 399.4C66.8293 390.403 70.4063 383.682 77.5063 367.303C81.0023 359.238 84.1353 352.368 84.4683 352.034C85.8033 350.7 84.9693 360.064 83.5003 362.905C82.6353 364.578 82.0983 366.119 82.3063 366.328C83.4093 367.43 90.2833 364.302 92.4713 361.702C102.762 349.472 95.3433 316.943 79.6743 305.588C74.2683 301.671 71.3773 301.964 64.3373 307.147ZM141.293 306.321C137.967 308.651 138.196 314.926 141.709 317.689C145.26 320.483 148.653 320.335 150.641 317.3C151.972 315.268 152.055 314.234 151.113 311.38C149.29 305.856 145.065 303.679 141.293 306.321ZM158.81 337.012C153.48 341.06 155.586 350.762 161.795 350.762C169.91 350.762 172.241 340.968 165.015 337.232C161.554 335.442 160.908 335.419 158.81 337.012ZM158.574 387.395C150.5 388.628 138.781 392.298 131.395 395.907C121.182 400.896 119.794 402.325 123.71 403.814C128.375 405.587 139.51 406.663 139.987 405.387C140.215 404.779 141.704 402.978 143.297 401.385C146.006 398.676 146.562 398.528 151.907 399.087C155.762 399.49 159.019 399.202 161.918 398.204C167.913 396.138 173.414 397.717 178.17 402.867L181.765 406.76L183.67 404.616C184.717 403.437 187.468 401.624 189.784 400.588C196.221 397.707 202.169 399.809 205.597 406.176L207.416 409.553L211.371 408.157C217.729 405.914 222.587 406.327 224.935 409.312C226.038 410.715 227.083 412.253 227.257 412.731C227.432 413.209 231.062 414.002 235.324 414.493C241.27 415.179 243.074 415.101 243.074 414.158C243.074 411.488 230.395 401.498 221.503 397.161C207.216 390.194 195.638 387.609 177.074 387.243C168.549 387.074 160.224 387.143 158.574 387.395ZM149.032 404.312C147.522 406.132 149.033 408.085 152.831 409.224C154.606 409.757 155.274 409.407 155.965 407.581C156.506 406.154 156.456 404.781 155.836 404.012C154.439 402.277 150.58 402.448 149.032 404.312ZM164.725 405.764C162.845 407.414 161.093 409.582 160.832 410.58C160.383 412.295 160.607 412.312 164.895 410.901C168.948 409.567 169.895 409.573 173.753 410.96C177.528 412.318 178.074 412.328 178.074 411.038C178.074 409.075 171.693 402.762 169.709 402.762C168.848 402.762 166.605 404.113 164.725 405.764ZM191.047 406.481C184.453 411.066 183.026 415.817 189.324 412.216C194.629 409.183 197.753 409.128 200.901 412.012L203.356 414.262L202.637 411.262C201.135 404.995 196.145 402.936 191.047 406.481ZM215.169 412.634C212.176 413.472 210.541 415.932 211.433 418.255C211.981 419.684 212.896 419.915 216.23 419.468C218.495 419.164 221.01 418.254 221.819 417.446C223.111 416.153 223.035 415.723 221.181 413.869C218.933 411.621 218.851 411.604 215.169 412.634ZM228.624 419.681C228.037 420.631 230.62 423.762 231.99 423.762C233.275 423.762 236.128 420.149 235.41 419.431C234.412 418.433 229.278 418.623 228.624 419.681ZM230.622 433.809C227.349 435.401 219.474 437.895 213.122 439.352C201.088 442.112 196.68 443.966 204.203 443.103C215.714 441.782 231.186 436.67 236.574 432.408C239.578 430.031 237.279 430.572 230.622 433.809ZM205.574 449.884C199.015 451.346 168.394 452.024 156.574 450.969C150.524 450.429 144.959 450.321 144.208 450.729C143.353 451.194 147.245 453.034 154.615 455.649C161.09 457.947 169.492 461.19 173.285 462.855C179.517 465.59 180.538 465.768 183.878 464.704C188.754 463.151 213.948 447.909 210.038 448.877C209.783 448.94 207.774 449.393 205.574 449.884Z" fill="black"/>
<defs>
<filter id="filter0_i_0_1" x="45.9791" y="5.9942" width="222.688" height="92.6428" filterUnits="userSpaceOnUse" color-interpolation-filters="sRGB">
<feFlood flood-opacity="0" result="BackgroundImageFix"/>
<feBlend mode="normal" in="SourceGraphic" in2="BackgroundImageFix" result="shape"/>
<feColorMatrix in="SourceAlpha" type="matrix" values="0 0 0 0 0 0 0 0 0 0 0 0 0 0 0 0 0 0 127 0" result="hardAlpha"/>
<feOffset dy="4"/>
<feGaussianBlur stdDeviation="2"/>
<feComposite in2="hardAlpha" operator="arithmetic" k2="-1" k3="1"/>
<feColorMatrix type="matrix" values="0 0 0 0 0 0 0 0 0 0 0 0 0 0 0 0 0 0 0.25 0"/>
<feBlend mode="normal" in2="shape" result="effect1_innerShadow_0_1"/>
</filter>
<filter id="filter1_d_0_1" x="47.2468" y="68.5" width="178.031" height="61.4312" filterUnits="userSpaceOnUse" color-interpolation-filters="sRGB">
<feFlood flood-opacity="0" result="BackgroundImageFix"/>
<feColorMatrix in="SourceAlpha" type="matrix" values="0 0 0 0 0 0 0 0 0 0 0 0 0 0 0 0 0 0 127 0" result="hardAlpha"/>
<feOffset dx="-7" dy="6"/>
<feGaussianBlur stdDeviation="2"/>
<feComposite in2="hardAlpha" operator="out"/>
<feColorMatrix type="matrix" values="0 0 0 0 0 0 0 0 0 0 0 0 0 0 0 0 0 0 0.25 0"/>
<feBlend mode="normal" in2="BackgroundImageFix" result="effect1_dropShadow_0_1"/>
<feBlend mode="normal" in="SourceGraphic" in2="effect1_dropShadow_0_1" result="shape"/>
</filter>
<filter id="filter2_i_0_1" x="119.485" y="323.521" width="169.659" height="95.9789" filterUnits="userSpaceOnUse" color-interpolation-filters="sRGB">
<feFlood flood-opacity="0" result="BackgroundImageFix"/>
<feBlend mode="normal" in="SourceGraphic" in2="BackgroundImageFix" result="shape"/>
<feColorMatrix in="SourceAlpha" type="matrix" values="0 0 0 0 0 0 0 0 0 0 0 0 0 0 0 0 0 0 127 0" result="hardAlpha"/>
<feOffset dx="13" dy="13"/>
<feGaussianBlur stdDeviation="2"/>
<feComposite in2="hardAlpha" operator="arithmetic" k2="-1" k3="1"/>
<feColorMatrix type="matrix" values="0 0 0 0 0 0 0 0 0 0 0 0 0 0 0 0 0 0 0.25 0"/>
<feBlend mode="normal" in2="shape" result="effect1_innerShadow_0_1"/>
</filter>
<linearGradient id="paint0_linear_0_1" x1="157.25" y1="6.5" x2="157.25" y2="94" gradientUnits="userSpaceOnUse">
<stop stop-color="white"/>
<stop offset="1" stop-color="white" stop-opacity="0"/>
</linearGradient>
</defs>
</svg>
