<svg width="870" height="1200" viewBox="0 0 870 1200" fill="none" xmlns="http://www.w3.org/2000/svg">
<rect width="870" height="1200" fill="#F5F5F5"/>
<path d="M10 10H860V1190H10V10Z" fill="#FFFCDF" stroke="#A62825" stroke-width="20"/>
<path d="M256.5 227L429.5 170.5L544.5 189L634.5 227L653 297C637.333 312.5 604.5 345.1 598.5 351.5C592.5 357.9 525.333 340.167 492.5 330.5L256.5 391.5L205.5 330.5L256.5 227Z" fill="white"/>
<path d="M149.5 875L304 770C328.167 786.667 377.6 821.1 382 825.5C386.4 829.9 400.5 827.333 407 825.5L422 783L492.5 804L510 770L534.5 762.5L728.5 883L695 927L477.5 1124L429.5 1090.5L291 993L169 914L149.5 875Z" fill="white"/>
<path d="M256.5 227L429.5 170.5L544.5 189L634.5 227L653 297C637.333 312.5 604.5 345.1 598.5 351.5C592.5 357.9 525.333 340.167 492.5 330.5L256.5 391.5L205.5 330.5L256.5 227Z" stroke="#FF7878"/>
<path d="M149.5 875L304 770C328.167 786.667 377.6 821.1 382 825.5C386.4 829.9 400.5 827.333 407 825.5L422 783L492.5 804L510 770L534.5 762.5L728.5 883L695 927L477.5 1124L429.5 1090.5L291 993L169 914L149.5 875Z" stroke="#FF7878"/>
<path d="M314.5 760.5C314.5 758.5 325.5 724 327.5 718.5L424.5 776.5C422.5 790.167 418.4 817.7 418 818.5C417.5 819.5 388.5 824 387 824C385.8 824 354.833 804.333 339.5 794.5C331.167 783.833 314.5 762.1 314.5 760.5Z" fill="#FFB800" stroke="#FF7878"/>
<path d="M372.5 705.5C373.3 698.3 403.167 654.833 418 634C433.167 639.5 465.6 650.7 474 651.5C484.5 652.5 521.5 634 524.5 630C527.5 626 546 632.5 547 634C548 635.5 555 713.5 553 719.5C551.4 724.3 513 770.833 494 793.5C474.167 784.333 431.2 764 418 756C401.5 746 371.5 714.5 372.5 705.5Z" fill="#D9D9D9" stroke="#FF7878"/>
<path d="M228 541.019C230.164 487.393 236.09 377.734 242.482 368.111L390.3 321L597.044 360.092V449.804H622.014L633 505.937L564.584 571.09L534.621 551.043C527.131 559.73 511.051 577.305 506.656 578.107C502.261 578.909 465.873 573.763 448.228 571.09L433.746 541.019L415.768 561.067L327.377 587.128C331.872 618.87 339.962 678.344 336.366 662.306C332.771 646.268 317.889 619.538 310.898 608.178L264.954 597.152L228 541.019Z" fill="#FAD7BE"/>
<path d="M461.711 646.268C452.39 641.089 433.746 630.03 433.746 627.223C444.233 620.374 465.507 606.274 466.705 604.67C467.904 603.066 478.524 593.644 483.684 589.133L506.656 608.178L522.137 640.755L461.711 646.268Z" fill="#FAD7BE"/>
<path d="M407 462C406.833 455.667 406.9 443 408.5 443H423C424 443 444.5 455.5 444.5 457V486L433.5 490.5L416 492.5C416.5 491 417.5 487.6 417.5 486C417.5 484 418 474.5 417.5 473.5C417.1 472.7 410.333 465.5 407 462Z" fill="white" stroke="white"/>
<path d="M538.5 494L535 443.5L560.5 438.5L568.5 449.5L571.5 477.5L558.5 487L547.5 492.5L538.5 494Z" fill="white" stroke="white"/>
<circle cx="405" cy="471" r="8" fill="white"/>
<path d="M296.5 482C293.5 483.5 255 467 252.5 466L348 377L321 460C313.833 466.833 298.9 480.8 296.5 482Z" fill="#D9D9D9" stroke="#FF7878"/>
<path d="M539 467C539 471.418 535.418 475 531 475C526.582 475 523 471.418 523 467C523 462.582 526.582 459 531 459C535.418 459 539 462.582 539 467Z" fill="#FFFBFB"/>
<path d="M343 589.5L427.5 553C443.333 561.167 479.5 577.1 497.5 575.5C520 573.5 541 556.5 543 556.5C545 556.5 572.5 564.5 577 572.5C580.6 578.9 590.167 605.167 594.5 617.5L589.5 666.5L575 673C569.667 668.167 558.6 657.5 557 653.5C555 648.5 522 620 517.5 617.5C513 615 478.5 613.5 475 613.5C471.5 613.5 441 619.5 437.5 620C434 620.5 418 645 410 653.5C403.6 660.3 369.667 685.667 353.5 697.5L327 650.5L343 589.5Z" fill="#D9D9D9" stroke="#FF7878"/>
<path fill-rule="evenodd" clip-rule="evenodd" d="M398.06 161.565C385.432 164.387 376.36 168.631 364.016 177.49C348.707 188.482 345.121 189.914 324.214 193.394C298.81 197.624 283.376 202.418 266.324 211.381C215.72 237.977 182.554 286.619 179.189 339.177C177.902 359.273 181.376 368.02 197.498 385.283C211.884 400.684 220.366 418.471 225.638 444.289C227.472 453.261 229.906 464.847 231.049 470.032C233.093 479.296 233.051 479.55 228.714 484.212C220.284 493.275 215.328 506.285 214.548 521.407C213.273 546.11 222.177 570.083 240.16 590.368C252.951 604.797 265.969 612.437 285.746 617.124C295.593 619.457 301.198 621.812 304.078 624.826C313.212 634.387 322.061 662.056 323.581 685.811L324.539 700.765H319.787C315.33 700.765 314.918 701.384 313.177 710.701C310.549 724.759 299.739 749.683 292.983 757.267C289.515 761.159 274.31 771.204 254.374 782.773C184.163 823.525 150.587 847.151 126.806 872.547L112 888.358L118.285 890.488C121.743 891.659 475.763 1125.92 477.635 1126C479.506 1126.08 142.48 884.771 156.049 874.844C174.221 861.549 197.93 847.195 246.021 820.378L311.321 783.968L320.055 792.924C332.79 805.985 348.852 819.117 364.137 828.963C389.562 845.343 401.685 855.065 406.131 862.643L410.476 870.046L410 915.157L409.523 960.269L413.516 967.817C418.6 977.432 433.644 993.789 461.97 1020.5C482.914 1040.25 484.611 1041.47 487.815 1039.13C489.698 1037.76 499.6 1031.1 509.816 1024.34C520.033 1017.59 535.934 1007.07 545.154 1000.96C564.385 988.23 570.976 982.129 586.444 962.734L597.553 948.807L594.735 938.522C593.184 932.867 586.807 916.208 580.562 901.501C566.123 867.494 565.167 859.68 572.651 836.813C575.405 828.397 577.658 820.503 577.658 819.269C577.658 818.037 573.516 815.289 568.454 813.164C557.895 808.731 545.278 798.911 540.532 791.432C538.741 788.61 537.276 785.915 537.276 785.443C537.276 784.972 546.544 790.143 557.871 796.933C569.197 803.723 596.638 817.951 618.848 828.551C668.209 852.109 696.452 867.606 716.367 882.061C730.452 892.284 471.306 1127.07 477.635 1126C489.134 1124.06 750.58 888.253 743.224 880.946C712.082 850.012 669.102 822.526 600.558 789.715C581.835 780.754 562.663 771.26 557.953 768.617C548.694 763.424 540.507 755.766 540.507 752.301C540.507 751.114 543.727 747.178 547.665 743.557C556.506 735.43 562.805 721.5 564.804 705.667C566.22 694.442 571.533 680.826 574.495 680.826C575.246 680.826 577.148 683.273 578.723 686.264C580.297 689.255 582.189 691.702 582.925 691.702C584.668 691.702 596.24 663.442 599.422 651.418C603.104 637.507 602.501 622.252 597.683 607.418C595.415 600.44 593.176 592.108 592.708 588.901C591.289 579.2 597.108 568.965 613.981 551.487C622.434 542.73 631.605 531.886 634.362 527.389C649.21 503.175 649.679 467.168 635.362 450.654C629.421 443.803 619.24 438.043 612.963 437.985C608.05 437.939 606.733 435.177 606.733 424.918C606.733 419.894 607.922 416.038 610.552 412.533C613.025 409.234 615.872 400.546 618.639 387.862C625.036 358.531 630.056 347.879 642.941 336.291C669.584 312.335 674.407 281.755 657.518 243.889C638.225 200.635 583.841 170.929 538.208 178.721C517.7 182.223 512.32 181.54 494.552 173.187C472.432 162.789 454.123 158.825 429.052 159.006C417.947 159.087 404.001 160.238 398.06 161.565ZM416.161 190.599C411.292 192.134 397.482 198.61 385.47 204.989C359.287 218.896 356.054 219.909 330.415 222.26C305.183 224.575 293.094 227.899 274.614 237.611C263.294 243.561 257.068 248.361 247.638 258.413C223.847 283.771 220.324 306.569 238.087 320.212C243.006 323.99 245.723 324.651 256.106 324.601C270.131 324.532 274.378 322.527 296.649 305.46C318.735 288.536 322.767 287.046 349.903 285.777C377.683 284.48 383.855 281.978 403.14 264.206C425.353 243.737 437.329 242.767 466.433 259.088C498.5 277.068 515.883 279.191 544.165 268.573C557.677 263.499 561.909 262.611 566.744 263.835C577.537 266.566 583.013 271.661 592.611 287.911C603.889 306.999 610.502 313.12 621.077 314.262C627.987 315.007 629.447 314.483 634.585 309.419C649.948 294.284 644.686 259.264 623.54 235.911C613.454 224.772 594.459 213.06 579.273 208.617C567.257 205.101 553.564 205.721 537.156 210.526C519.881 215.581 505.852 213.66 486.325 203.558C477.404 198.944 466.864 193.856 462.904 192.255C452.459 188.03 427.146 187.133 416.161 190.599ZM431.475 361.7C422.591 363.465 408.805 367.148 400.84 369.885C383.327 375.903 350.997 391.823 347.86 395.975C346.613 397.625 343.538 405.5 341.024 413.475C333.822 436.326 320.899 469.947 316.561 477.123L312.6 483.672L319.179 489.99C326.653 497.17 328.834 501.351 334.789 519.914C342.358 543.509 353.215 556.58 369.844 562.123C380.219 565.579 387.531 565.534 398.472 561.945C411.126 557.792 421 550.062 429.697 537.495C434.446 530.631 439.537 525.446 443.22 523.718C452.597 519.323 466.204 522.783 466.204 529.562C466.204 531.269 463.561 531.835 456.651 531.606C448.628 531.342 446.45 531.971 443.057 535.542C438.122 540.733 436.455 547.336 438.823 552.302C440.422 555.655 441.579 555.904 450.574 554.832C459.095 553.819 462.812 554.461 476.062 559.235C495.297 566.165 506.403 566.543 516.428 560.611C525.706 555.119 530.815 546.614 530.815 536.662C530.815 526.945 527.576 522.388 516.26 516.185C504.63 509.811 499.621 499.474 498.747 480.056C497.446 451.164 513.069 430.015 537.552 427.524C549.381 426.321 558.814 430.1 567.094 439.36C575.212 448.439 577.852 454.684 578.863 467.196C580.07 482.126 577.014 492.532 568.181 503.554C559.911 513.876 553.354 517.697 543.913 517.697H537.523L540.161 523.588C541.611 526.827 543.096 534.599 543.459 540.858C543.987 549.966 544.771 552.628 547.384 554.198C561.84 562.878 576.679 557.452 584.468 540.635C589.597 529.56 589.324 515.828 583.715 503.015C581.273 497.434 579.273 491.419 579.273 489.65C579.273 487.88 582 479.806 585.331 471.705L591.388 456.977L591.118 429.788L590.848 402.6L584.197 395.953C569.094 380.862 537.163 366.565 505.827 360.862C486.178 357.286 451.729 357.674 431.475 361.7ZM393.359 392.838C380.306 394.993 367.581 404.075 359.774 416.809C353.993 426.237 349.524 442.648 350.207 451.938L350.711 458.789L354.413 447.52C358.789 434.2 365.948 426.741 383.109 417.622C393.573 412.062 395.461 411.663 411.284 411.663C420.612 411.663 430.244 412.362 432.687 413.218C436.702 414.624 437.129 414.347 437.129 410.327C437.129 407.882 435.83 404.561 434.242 402.95C426.92 395.515 406.996 390.585 393.359 392.838ZM547.775 392.165C545.11 392.535 538.932 395.033 534.045 397.719C526.218 402.02 525.161 403.247 525.161 408.038C525.161 412.569 525.699 413.325 528.392 412.569C530.169 412.071 537.801 411.692 545.352 411.726C556.968 411.781 560.496 412.56 568.26 416.785C573.308 419.531 579.646 424.601 582.344 428.048C587.902 435.152 588.971 435.654 588.949 431.148C588.918 424.78 581.225 409.676 574.597 402.972C565.595 393.867 557.892 390.762 547.775 392.165ZM323.251 409.752C317.032 413.874 311.08 419.261 310.024 421.722C308.967 424.184 307.383 434.093 306.502 443.743C304.018 470.997 307.121 478.013 314.753 462.401C320.475 450.696 335.665 407.307 335.04 404.452C334.736 403.069 330.386 405.025 323.251 409.752ZM287.353 437.749C281.333 443.622 272.909 452.471 268.632 457.413L260.856 466.4L271.863 467.524C277.917 468.14 286.504 469.166 290.946 469.804L299.022 470.96V455.813C299.022 447.481 299.521 437.606 300.132 433.866C300.752 430.073 300.592 427.069 299.77 427.069C298.961 427.069 293.372 431.874 287.353 437.749ZM400.308 430.392C376.412 439.962 364.725 464.725 371.593 491.236C378.651 518.475 407.913 531.32 429.928 516.841C436.856 512.286 441.974 504.601 441.974 498.756C441.974 494.435 439.883 495.361 433.835 502.365C425.996 511.438 413.789 515.277 402.104 512.343C394.285 510.38 383.824 503.135 383.824 499.682C383.824 498.924 391.639 497.766 401.189 497.108C420.536 495.776 434.115 492.586 435.124 489.135C435.613 487.46 434.79 487.27 432.018 488.417C429.942 489.274 426.272 490.512 423.862 491.167L419.478 492.358L420.44 480.826C421.381 469.498 421.296 469.166 415.534 462.008C408.944 453.824 408.21 449.824 412.793 447.071C421.082 442.094 433.556 447.14 441.018 458.492C443.987 463.007 444.38 466.039 444.255 483.414C444.097 505.321 445.148 507.197 452.269 497.703C460.035 487.344 462.027 468.111 456.674 455.164C447.791 433.682 421.236 422.011 400.308 430.392ZM538.487 444.416C536.279 446.937 537.226 450.95 541.314 456.4C544.522 460.68 545.352 463.783 545.352 471.499C545.352 476.84 544.604 483.416 543.692 486.111C542.779 488.807 542.249 491.257 542.518 491.556C542.784 491.855 547.347 490.144 552.658 487.754L562.313 483.405L557.868 487.779C550.004 495.517 534.953 497.973 519.655 494.016C511.396 491.879 508.852 493.594 512.234 499.015C517.153 506.894 540.19 511.426 551.305 506.7C571.087 498.29 576.206 461.858 559.484 448.496C554.569 444.57 540.712 441.876 538.487 444.416ZM523.725 464.357C522.485 467.982 525.386 474.196 528.316 474.196C533.322 474.196 535.661 471.825 535.661 466.752C535.661 461.999 535.147 461.508 530.18 461.508C526.686 461.508 524.346 462.541 523.725 464.357ZM605.946 468.073C604.603 471.684 603.503 475.165 603.503 475.809C603.503 476.452 601.642 480.052 599.367 483.808L595.234 490.634L599.367 496.148C603.908 502.203 604.885 513.215 601.915 524.838C601.042 528.255 600.658 531.423 601.063 531.877C602.611 533.615 613.739 522.297 618.14 514.509C627.636 497.705 627.84 479.267 618.662 467.027C613.054 459.55 608.996 459.884 605.946 468.073ZM400.215 467.531C397.892 470.672 399.321 475.488 403.285 477.868C407.052 480.13 411.66 475.347 410.966 469.891C410.375 465.236 403.095 463.638 400.215 467.531ZM251.371 479.514C249.336 481.091 249.465 481.397 252.179 481.435C264.174 481.605 283.704 500.601 289.854 518.081C293.399 528.157 299.83 557.211 299.83 563.154C299.83 568.7 295.147 567.267 287.528 559.386C281.353 552.998 279.584 552.135 272.656 552.135C264.311 552.135 260.845 549.525 258.697 541.624C257.219 536.187 260.969 529.807 267.4 526.818C276.712 522.489 271.65 510.621 258.792 506.637C253.961 505.14 251.706 505.411 246.853 508.072C223.357 520.96 238.987 570.979 271.774 587.821C282.706 593.438 290.529 592.814 298.891 585.657C306.047 579.532 310.688 580.475 316.664 589.269C319.045 592.771 321.618 595.637 322.382 595.637C324.122 595.637 320.626 578.82 315.414 562.104C313.238 555.126 310.671 543.649 309.712 536.6C305.953 508.993 297.226 493.191 281.047 484.696C270.264 479.033 255.353 476.431 251.371 479.514ZM418.553 562.244C414.999 564.626 405.469 569.065 397.375 572.108C379.691 578.758 370.7 584.875 361.647 596.418C345.985 616.383 342.615 647.871 353.229 675.07C357.741 686.627 360.178 683.35 358.891 667.461C356.313 635.649 369.203 606.177 392.353 590.951C397.656 587.464 402.302 584.952 402.675 585.37C403.048 585.789 398.635 590.346 392.868 595.493C373.136 613.113 362.755 638.587 365.295 663.154C365.888 668.887 366.961 673.576 367.678 673.576C368.397 673.576 372.408 664.401 376.591 653.185C386.997 625.294 389.307 623.506 385.449 646.332C383.732 656.489 384.803 661.713 387.496 656.315C388.381 654.541 391.954 644.853 395.438 634.786C402.652 613.94 407.538 605.142 415.852 598.026L421.667 593.048L418 599.706C412.192 610.251 409.25 617.521 410.31 618.712C411.455 619.997 424.324 610.179 431.855 602.274C439.216 594.549 439.933 597.237 433.165 607.186C430.026 611.801 427.846 615.575 428.319 615.575C430.154 615.575 443.034 607.697 447.924 603.586C455.367 597.326 457.564 598.279 452.584 605.606C448.675 611.355 448.56 611.95 451.345 611.95C456.486 611.95 465.173 604.105 469.284 595.751C473.078 588.037 473.098 587.786 470.092 585.316C468.397 583.924 461.923 581.16 455.704 579.175C440.049 574.178 433.685 570.321 429.887 563.535C428.094 560.332 426.266 557.758 425.822 557.814C425.377 557.868 422.107 559.862 418.553 562.244ZM534.262 568.508C526.916 579.657 514.744 586.911 496.309 591.125C491.743 592.169 491.724 592.231 494.694 595.997C498.994 601.449 511.525 610.137 515.089 610.137C517.949 610.137 517.927 609.843 514.662 604.699C509.698 596.876 513.762 597.516 526.164 606.512C539.772 616.381 541.584 616.028 536.388 604.52C534.091 599.436 532.524 594.928 532.903 594.502C533.283 594.076 537.875 598.897 543.107 605.216C554.304 618.738 563.116 634.953 569.176 653.185C571.578 660.414 574.091 666.326 574.762 666.326C577.018 666.326 578.101 656.966 577.157 645.625C575.552 626.332 570.659 614.987 557.05 599.004C544.475 584.234 543.547 581.047 554.398 589.902C570.315 602.89 579.648 620.316 583.289 643.849C584.45 651.353 585.767 657.903 586.214 658.405C588.065 660.482 591.286 644.648 591.252 633.642C591.176 609.399 575.463 584.178 551.844 570.39C544.894 566.331 538.907 563.011 538.544 563.011C538.181 563.011 536.254 565.485 534.262 568.508ZM478.255 600.621C476.559 604.36 474.925 607.984 474.623 608.674C473.687 610.808 485.177 612.405 489.59 610.755L493.765 609.193L488.729 601.509C485.959 597.282 483.163 593.824 482.516 593.824C481.869 593.824 479.951 596.884 478.255 600.621ZM342.979 613.336C340.415 616.514 336.51 631.962 337.879 633.501C338.273 633.943 338.857 633.965 339.173 633.55C340.028 632.431 346.537 610.137 346.009 610.137C345.762 610.137 344.397 611.576 342.979 613.336ZM496.894 624.929C494.473 626.053 486.968 626.361 478.152 625.701C464.614 624.688 462.692 624.98 453.923 629.363C445.262 633.693 444.733 634.267 448.108 635.698C454.488 638.404 481.135 641.393 490.433 640.445C500.263 639.444 511.432 634.287 511.432 630.748C511.432 628.241 505.226 622.758 502.591 622.939C501.678 623.002 499.115 623.898 496.894 624.929ZM523.511 642.808C521.882 644.826 516.006 648.987 510.449 652.058C500.381 657.619 500.288 657.633 481.258 656.422C456.737 654.864 446.744 652.882 436.261 647.497L427.783 643.142L414.828 656.999C401.428 671.336 395.131 682.315 395.131 691.348C395.131 697.449 404.644 719.316 407.755 720.367C409.368 720.911 409.617 719.515 408.789 714.562C407.566 707.244 408.908 698.952 411.315 698.952C412.187 698.952 412.916 700.786 412.935 703.03C413.021 712.93 422.709 729.994 433.518 739.281C441.324 745.988 442.617 745.56 439.006 737.469C437.337 733.731 435.494 728.225 434.911 725.234C433.851 719.813 433.856 719.807 436.701 723.693C438.269 725.838 441.558 730.494 444.01 734.041C448.607 740.693 462.59 752.549 463.989 750.979C465.275 749.538 460.481 738.128 455.066 729.74C449.524 721.154 449.589 718.758 455.25 722.921C466.41 731.128 477.348 749.297 483.09 769.167C484.6 774.389 486.403 779.056 487.097 779.538C488.391 780.435 508.705 753.252 516.701 739.923C519.154 735.832 521.614 729.394 522.167 725.616C522.719 721.841 523.961 719.046 524.927 719.407C526.975 720.173 529.66 733.053 528.487 736.484C526.84 741.304 530.754 738.556 537.147 730.407C553.749 709.242 551.919 669.817 533.172 644.818C528.155 638.128 527.41 637.972 523.511 642.808ZM328.273 734.105C322.44 749.769 321.894 754.128 324.934 760.738C331.538 775.097 360.868 800.815 385.78 814.091C392.579 817.714 399.825 820.409 401.886 820.083C407.107 819.251 413.159 805.561 412.549 795.96L412.092 788.744L389.308 776.022C365.496 762.723 345.599 747.186 336.306 734.634L330.83 727.235L328.273 734.105ZM508.425 787.412C506.537 790.39 503.995 797.194 502.777 802.532C501.559 807.87 499.919 812.22 499.133 812.202C491.738 812.019 468.756 808.626 455.704 805.789C446.82 803.859 438.694 802.276 437.647 802.273C436.599 802.269 434.554 806.859 433.1 812.47C431.1 820.188 428.572 824.73 422.72 831.127L414.985 839.581L419.717 845.846C430.252 859.798 433.882 874.039 433.926 901.593C433.968 927.573 436.612 951.716 440.304 959.838C447.066 974.712 468.68 988.877 486.784 990.3C499.225 991.278 509.351 988.114 532.43 976.04C551.356 966.138 557.578 960.904 561.655 951.455C566.338 940.599 565.183 930.469 555.923 901.176C551.967 888.664 547.94 873.539 546.976 867.566C545.385 857.719 545.598 855.491 549.274 843.63C551.503 836.436 553.169 830.404 552.975 830.226C552.779 830.046 549.404 828.08 545.47 825.852C534.598 819.697 521.68 804.955 516.453 792.735L511.861 781.998L508.425 787.412ZM514.841 832.283C501.195 845.167 511.821 870.031 528.355 863.909C535.583 861.231 539.626 854.549 539.626 845.272C539.626 839.524 538.612 837.132 534.386 832.896C527.799 826.291 521.399 826.09 514.841 832.283ZM449.054 832.325C433.832 840.751 439.842 867.367 456.993 867.479C472.56 867.581 476.627 842.678 462.61 833.088C456.3 828.772 455.549 828.731 449.054 832.325ZM532.047 911.956C526.017 915.747 522.739 923.601 522.739 934.246C522.739 941.451 523.551 944.065 526.996 947.931C535.336 957.289 550.395 953.575 555.784 940.831C563.266 923.139 546.564 902.822 532.047 911.956ZM453.461 917.473C444.869 925.586 445.585 940.772 455.023 950.639C460.809 956.688 471.584 956.013 477.635 949.224C481.512 944.872 482.357 942.405 482.357 935.416C482.357 927.948 481.589 926.046 476.086 919.869C468.295 911.129 460.999 910.355 453.461 917.473Z" fill="black"/>
</svg>
