<svg width="870" height="1200" viewBox="0 0 870 1200" fill="none" xmlns="http://www.w3.org/2000/svg">
<rect width="870" height="1200" fill="#F5F5F5"/>
<path d="M10 10H860V1190H10V10Z" fill="#FFFCDF" stroke="#A62825" stroke-width="20"/>
<path d="M290.5 518L442 416.5H465.5L618 462V498L604.5 537L596 571L604.5 620L573.5 675L544 698.5L514 719.5L504.5 749H402L368 719.5L352 660L284 582L290.5 518Z" fill="#FFE4BB"/>
<path d="M237.5 794L328.5 743L381.5 800L402 852L388 929.5H448.5L474 968.5L514 961L564 929.5L633 943L652 909.5L633 852L596 794L530 749H564L643.5 794L690 852L746.5 929.5L752.5 977L690 1022.5L618 1063H544C530.833 1052.83 504.5 1030.5 504.5 1022.5C504.5 1014.5 472.833 1025.83 457 1032.5L409.5 1068.5L328.5 1044L266 1032.5L198.5 1022.5L150.5 996C152 978 155.6 940.8 158 936C160.4 931.2 200.667 863.333 220.5 830L237.5 794Z" fill="#FFE4BB"/>
<path d="M290.5 518L442 416.5H465.5L618 462V498L604.5 537L596 571L604.5 620L573.5 675L544 698.5L514 719.5L504.5 749H402L368 719.5L352 660L284 582L290.5 518Z" stroke="black"/>
<path d="M237.5 794L328.5 743L381.5 800L402 852L388 929.5H448.5L474 968.5L514 961L564 929.5L633 943L652 909.5L633 852L596 794L530 749H564L643.5 794L690 852L746.5 929.5L752.5 977L690 1022.5L618 1063H544C530.833 1052.83 504.5 1030.5 504.5 1022.5C504.5 1014.5 472.833 1025.83 457 1032.5L409.5 1068.5L328.5 1044L266 1032.5L198.5 1022.5L150.5 996C152 978 155.6 940.8 158 936C160.4 931.2 200.667 863.333 220.5 830L237.5 794Z" stroke="black"/>
<path d="M400 810L338 749L331.5 738L361 726L393.5 749L472.5 757.5L505 749H537L609.5 801L652.5 871C649.333 894.667 640.6 942 631 942C621.4 942 578.667 932.667 558.5 928L519.5 942L457 928H393.5L400 810Z" fill="#113C10" stroke="black"/>
<path d="M427 554C424.5 550 439 529 441.5 529C448 534.833 461 546.8 461 548C461 549.5 453.5 568.5 441.5 565.5C429.5 562.5 429.5 558 427 554Z" fill="white"/>
<path d="M570 532.5H550.5L556 560.5C560 560.5 568.8 560.3 572 559.5C575.2 558.7 574.333 547.5 573.5 542L570 532.5Z" fill="white"/>
<path d="M498 627L479.5 631C484 636.833 493.4 648.7 495 649.5C497 650.5 516.5 643 520 642C522.8 641.2 524.167 637.667 524.5 636L498 627Z" fill="white"/>
<path d="M101.5 452.5L124 325.5C183.167 287.667 303.2 210.8 310 206C316.8 201.2 483.167 161.667 565.5 142.5L765 233L789 325.5L612 452.5L472 413L441.5 422.5L275.5 542L101.5 452.5Z" fill="white"/>
<path d="M427 554C424.5 550 439 529 441.5 529C448 534.833 461 546.8 461 548C461 549.5 453.5 568.5 441.5 565.5C429.5 562.5 429.5 558 427 554Z" stroke="black"/>
<path d="M570 532.5H550.5L556 560.5C560 560.5 568.8 560.3 572 559.5C575.2 558.7 574.333 547.5 573.5 542L570 532.5Z" stroke="black"/>
<path d="M498 627L479.5 631C484 636.833 493.4 648.7 495 649.5C497 650.5 516.5 643 520 642C522.8 641.2 524.167 637.667 524.5 636L498 627Z" stroke="black"/>
<path d="M101.5 452.5L124 325.5C183.167 287.667 303.2 210.8 310 206C316.8 201.2 483.167 161.667 565.5 142.5L765 233L789 325.5L612 452.5L472 413L441.5 422.5L275.5 542L101.5 452.5Z" stroke="black"/>
<path fill-rule="evenodd" clip-rule="evenodd" d="M491.233 125.994C487.7 126.39 475.655 127.71 464.467 128.929C409.382 134.927 355.264 152.807 315.646 178.095C307.402 183.357 293.912 189.794 285.668 192.401C231.52 209.517 182.42 239.255 136.576 282.699C84.6261 331.928 58.1595 382.261 60.0995 428.13C61.0459 450.48 66.3179 461.503 84.2556 478.646C115.964 508.948 161.763 527.706 224.524 536.097C237.625 537.848 252.087 539.28 256.663 539.28C264.351 539.28 265.085 539.789 266.316 545.951C267.049 549.621 269.642 560.703 272.079 570.58C276.708 589.338 276.267 600.517 270.725 604.926C265.312 609.232 259.173 605.377 256.691 596.116C255.426 591.385 254.137 586.645 253.83 585.58C253.524 584.515 250.685 588.622 247.522 594.706C243.156 603.103 241.781 608.762 241.818 618.193C241.878 634.216 246.366 643.37 262.901 661.199C270.124 668.986 276.184 677.299 276.37 679.672C277.406 692.825 273.488 697.328 261.006 697.328C251.314 697.328 244.511 690.94 243.522 680.907L242.811 673.723L238.017 680.907C232.434 689.272 231.593 704.067 236.118 714.327C242.783 729.449 260.875 740.397 281.858 742.012C289.252 742.581 295.299 743.613 295.293 744.305C295.288 744.997 286.115 750.036 274.91 755.5C253.368 766.007 234.985 780.412 224.529 794.979C221.068 799.8 215.692 811.311 212.58 820.56C208.214 833.532 203.756 841.35 193.064 854.78C166.339 888.358 147.981 920.514 136.06 954.646C129.324 973.93 128.848 988.053 134.574 998.811C140.431 1009.81 156.322 1024.18 170.855 1031.6C193.529 1043.19 203.405 1044.69 258.901 1045.04L309.222 1045.35L324.701 1052.99C339.543 1060.32 395.097 1075 408.005 1075C417.236 1075 426.654 1069.72 442.302 1055.79L457.611 1042.16H482.253H506.895L522.991 1055.27C542.721 1071.34 555.593 1076.73 565.186 1072.92C569.933 1071.03 578.01 1070.69 594.196 1071.7C621.271 1073.37 629.408 1070.74 647.331 1054.49C655.648 1046.95 663.389 1042.35 674.949 1038.08C719.737 1021.56 757.347 997.282 767.589 978.297C779.249 956.682 746.437 896.603 695.301 845.934C678.414 829.203 675.75 825.541 672.924 815.166C667.213 794.203 649.354 772.864 627.014 760.315C621.757 757.361 607.845 752.548 596.1 749.617C541.013 735.869 523.317 727.507 528.743 717.788C531.484 712.878 550.764 704.251 567.214 700.573C586.021 696.367 587.295 694.922 585.659 679.62L584.301 666.913L593.44 665.517C614.218 662.342 634.83 648.912 641.38 634.277C644.772 626.701 645.273 607.473 642.196 602.91C640.532 600.441 640.115 600.788 640.087 604.655C640.042 611.291 627.006 623.436 619.926 623.436C615.016 623.436 614.359 622.606 614.359 616.414C614.359 612.551 612.329 601.237 609.847 591.27C603.102 564.172 604.727 554.43 621.263 522.86C633.629 499.251 634.674 496.22 634.35 484.887C634.155 478.114 633.674 470.347 633.28 467.627C632.611 463.038 634.262 462.112 656.115 454.811C719.125 433.756 759.99 406.51 787.066 367.501C803.709 343.527 809.972 325.692 810 302.209C810.038 266.85 797.548 240.61 766.467 210.761C717.279 163.525 648.695 134.888 565.417 126.813C544.661 124.8 505.764 124.371 491.233 125.994ZM498.844 174.228C443.296 179.788 362.466 206.348 305.023 237.917C213.927 287.981 143.553 351.848 130.883 395.956C128.18 405.363 131.29 410.268 143.846 416.408C151.619 420.209 155.212 420.607 173.148 419.661C213.726 417.522 244.623 402.756 322.07 348.494C340.913 335.29 360.667 321.46 365.967 317.757C371.266 314.057 373.675 311.559 371.32 312.205C368.965 312.854 360.292 314.863 352.048 316.671C343.804 318.48 317.941 325.042 294.575 331.253C271.207 337.464 251.674 342.15 251.169 341.664C249.702 340.258 274.486 330.147 298.173 322.49C328.382 312.724 374.958 303.802 420.54 299.05C441.756 296.838 466.823 293.541 476.244 291.723C522.351 282.827 560.884 261.829 581.214 234.522C594.593 216.549 598.156 213.949 609.406 213.949C617.528 213.949 619.948 214.973 625.241 220.652C643.166 239.881 619.734 269.889 573.807 286.519C547.355 296.099 548.126 295.686 554.985 296.583C564.045 297.767 591.171 291.741 609.612 284.446C623.609 278.906 628.86 275.294 643.954 260.809C659.247 246.135 662.795 243.711 668.995 243.711C679.144 243.711 687.138 250.844 688.555 261.162C691.215 280.546 663.772 300.048 614.894 313.504C599.123 317.846 594.569 321.719 605.258 321.696C608.496 321.69 620.481 320.335 631.888 318.687C663.326 314.145 687.41 303.494 708.557 284.779C713.671 280.255 718.549 276.552 719.395 276.552C721.829 276.552 727.853 290.013 727.801 295.335C727.722 303.576 720.208 316.573 711.53 323.48C696.311 335.596 679.26 342.183 656.77 344.632L636.228 346.867L638.061 352.992C645.419 377.581 703.855 372.489 736.743 344.389C749.326 333.64 758.304 317.889 760.996 301.842C762.9 290.493 757.414 270.255 749.043 257.753C739.998 244.243 716.658 223.694 697.052 211.98C642.624 179.462 575.074 166.596 498.844 174.228ZM457.758 326.965C433.69 331.14 391.463 345.022 367.04 356.785C340.059 369.78 295.25 398.435 281.948 411.2C270.91 421.794 255.021 449.243 249.477 467.301C242.612 489.658 246.407 508.373 259.67 517.583L265.794 521.834L269.306 516.756C276.203 506.79 299.931 482.605 316.218 468.945C347.074 443.062 376.583 426.744 416.756 413.345C474.516 394.08 539.038 392.707 577.479 409.924C594.019 417.331 602.284 424.136 608.245 435.246C610.556 439.554 613.601 442.728 615.01 442.297C616.419 441.868 620.359 436.586 623.768 430.564C632.853 414.509 633.928 395.839 626.627 380.956C617.239 361.826 596.774 344.722 571.488 334.872C544.404 324.323 493.415 320.779 457.758 326.965ZM449.289 427.929C444.679 439.637 437.636 451.552 430.804 459.206L423.733 467.122L431.666 465.023C442.362 462.192 453.988 465.692 461.208 473.919C464.336 477.484 466.542 482.244 466.182 484.658C465.574 488.748 464.51 488.952 447.249 488.272L428.962 487.55L418.341 495.286C412.502 499.539 406.453 504.73 404.9 506.817C397.48 516.793 397.313 502.856 404.654 486.427C406.797 481.628 408.099 477.703 407.545 477.703C404.879 477.703 348.474 515.22 347.506 517.636C346.896 519.161 348.451 524.268 350.96 528.985C357.457 541.189 363.825 566.655 363.825 580.42C363.825 590.868 363.292 592.304 359.007 593.407C351.596 595.309 351.023 595.079 348.725 589.289C346.703 584.193 345.965 583.948 335.991 585.079C323.477 586.502 320.081 583.567 327.537 577.778C330.663 575.352 334.838 574.149 338.395 574.65L344.177 575.463L340.038 565.397C331.693 545.101 325.515 537.478 314.04 533.31C306.537 530.586 299.488 533.076 293.218 540.666C276.488 560.925 314.828 619.33 344.856 619.33C347.821 619.33 352.487 617.03 355.26 614.199C358.027 611.377 361.374 609.068 362.699 609.068C364.025 609.068 368.915 616.578 373.568 625.755C384.346 647.018 399.033 661.422 419.99 671.279C442.142 681.698 498.538 697.328 513.979 697.328C532.034 697.328 536.017 695.195 542.222 682.199C545.584 675.162 554.028 664.487 564.648 653.844C574.017 644.458 583.852 632.67 586.503 627.652C590.775 619.558 591.13 616.888 589.64 604.047C586.184 574.254 587.372 555.943 593.841 539.28C602.265 517.589 608.16 495.984 606.785 491.835C605.723 488.627 593.346 482.792 591.453 484.608C591.014 485.027 591.494 488.958 592.52 493.34C595.327 505.349 593.828 506.889 584.944 501.111C574.743 494.475 568.77 493.215 560.544 495.963C556.815 497.209 552.944 498.229 551.942 498.229C548.103 498.229 550.359 488.007 555.492 482.162L560.863 476.043L536.467 468.678C523.047 464.627 506.638 458.574 500 455.228C487.306 448.826 466.221 434.008 459.317 426.64C453.934 420.89 451.962 421.145 449.289 427.929ZM224.64 434.639C201.959 441.862 174.553 445.747 159.229 443.912C152.801 443.142 142.245 439.953 135.771 436.82C122.624 430.464 119.782 432.886 130.369 441.424C140.615 449.69 150.088 451.648 174.09 450.464C189.535 449.702 200.024 447.925 210.722 444.257C227.996 438.335 246.053 430.728 246.053 429.372C246.053 427.949 244.24 428.397 224.64 434.639ZM424.611 512.404C416.626 517.072 408.793 531.602 408.793 541.746C408.793 558.864 421.838 582.269 433.812 586.633C437.397 587.939 441.264 587.598 446.456 585.519C466.448 577.514 468.942 534.231 450.495 515.481C442.497 507.351 434.816 506.437 424.611 512.404ZM544.914 517.437C529.04 533.57 528.981 563.956 544.796 575.882C556.263 584.527 566.773 581.046 574.747 565.958C583.685 549.053 580.535 518.313 569.274 512.538C561.177 508.383 552.006 510.228 544.914 517.437ZM439.883 541.214C437.671 547.891 440.613 553.983 445.696 553.254C451.936 552.361 455.456 546.425 452.461 541.846C448.964 536.499 441.566 536.126 439.883 541.214ZM558.685 543.314C558.685 550.514 563.389 553.466 568.451 549.439C573.693 545.27 571.43 538.361 564.573 537.606C559.272 537.021 558.685 537.587 558.685 543.314ZM309.597 548.002C307.571 549.42 305.385 554.274 304.74 558.786C303.64 566.489 303.768 566.74 306.856 562.885C313.406 554.714 314.815 553.648 319.083 553.648C321.47 553.648 325.526 554.675 328.1 555.931C332.359 558.008 332.297 557.751 327.423 553.061C320.614 546.512 314.284 544.714 309.597 548.002ZM525.751 584.49C527.319 593.889 524.086 598.792 513.563 602.972C503.591 606.931 505.994 609.71 518.398 608.567C532.338 607.284 538.285 601.477 536.494 590.9C535.338 584.067 529.841 576.227 526.208 576.227C525.199 576.227 524.993 579.944 525.751 584.49ZM445.345 627.459C455.21 642.826 470.838 658.502 480.482 662.699C491.107 667.328 505.385 667.59 514.006 663.317C520.816 659.943 531.514 641.313 534.287 628.003C535.651 621.455 535.544 621.334 530.135 623.306C527.081 624.419 511.298 625.287 495.06 625.234C471.859 625.16 462.917 624.298 453.294 621.209C446.557 619.047 440.544 617.278 439.93 617.278C439.315 617.278 441.752 621.859 445.345 627.459ZM490.287 632.528C486.347 637.079 494.854 640.499 505.73 638.735L514.555 637.307L503.966 633.452C491.366 628.867 493.343 629 490.287 632.528ZM379.885 695.072C379.885 710.425 380.673 724.153 381.637 725.579C384.048 729.155 396.528 735.038 413.091 740.411C428.292 745.344 472.279 748.449 481.041 745.208L485.835 743.437L479.765 731.158C469.675 710.752 464.641 706.464 443.516 700.288C420.51 693.561 402.118 684.896 389.521 674.846L379.885 667.161V695.072ZM348.1 736.912L342.012 741.583L358.138 754.27C407.808 793.347 429.9 854.552 412.577 905.095C406.36 923.233 406.883 924.434 421.857 926.386C430.17 927.47 432.255 926.866 439.602 921.257C450.234 913.137 454.461 913.246 459.711 921.774C463.617 928.123 464.99 928.751 477.587 929.976C496.66 931.827 514.462 928.564 531.488 920.091C539.494 916.107 548.938 912.847 552.473 912.847C560.796 912.847 569.995 917.476 574.359 923.861C577.214 928.038 580.205 929.171 591.387 930.321C612.393 932.476 628.489 924.188 638.11 906.259C647.168 889.376 641.53 870.312 617.04 835.024C605.378 818.224 579.297 789.693 575.599 789.693C574.588 789.693 571.77 793.433 569.338 798.004C564.109 807.83 560.73 809.476 552.509 806.212C543.7 802.715 540.694 796.034 542.396 783.737L543.822 773.427L531.445 764.114C524.64 758.993 517.835 754.802 516.325 754.802C514.818 754.8 507.591 756.801 500.266 759.248C464.745 771.114 395.583 759.927 364.652 737.314C356.151 731.099 355.695 731.086 348.1 736.912ZM294.64 767.534C255.389 787.124 244.908 797.918 233.974 830.01C230.122 841.315 223.923 852.424 212.97 867.646C195.12 892.453 174.178 928.332 166.219 947.741C155.677 973.443 155.968 985.693 167.386 996.955C181.645 1011.02 208.602 1017.64 276.477 1023.72C302.128 1026.03 324.003 1028.98 327.183 1030.57C330.26 1032.11 338.432 1036.69 345.344 1040.75C352.821 1045.15 361.926 1048.62 367.828 1049.33C373.281 1049.99 381.228 1051.41 385.487 1052.5C389.746 1053.59 396.973 1054.4 401.547 1054.31L409.864 1054.14L403.44 1051.32C399.907 1049.77 392.922 1048.46 387.915 1048.41C378.883 1048.32 375.838 1045.74 382.054 1043.46C383.834 1042.8 391.785 1041.72 399.72 1041.06C425.876 1038.87 425.958 1038.81 413.936 1030.98C399.598 1021.65 383.609 1006.91 386.667 1005.85C388.039 1005.37 394.403 1007.82 400.808 1011.28C411.545 1017.09 414.564 1017.69 439.531 1018.9C458.195 1019.81 466.608 1019.53 466.608 1018.02C466.608 1012.57 449.225 1002.9 431.956 998.741C411.842 993.895 401.825 989.537 393.268 981.918C386.014 975.457 385.902 972.448 392.656 965.461C397.519 960.432 398.851 960.106 409.615 961.319C423.894 962.928 437.564 957.468 446.095 946.747C452.095 939.206 453.3 934.368 448.763 936.037C447.191 936.616 434.906 937.761 421.461 938.582C408.016 939.405 394.673 940.918 391.808 941.947C386.699 943.784 355.74 963.211 335.22 977.462C328.832 981.896 322.34 984.687 318.404 984.687C308.436 984.687 276.175 973.558 246.383 959.845C231.479 952.983 216.154 946.871 212.328 946.261C202.486 944.691 203.687 942.38 215.792 939.596C223.572 937.807 229.537 937.776 239.319 939.477C248.017 940.988 253.747 941.076 256.353 939.74C263.137 936.259 288.53 909.198 298.505 894.816C304.941 885.538 309.391 876 312.119 865.638L316.173 850.244L321.776 861.533C331.021 880.154 328.661 894.048 312.342 917.082L303.462 929.615L308.325 934.576C317.849 944.295 334.286 944.744 352.464 935.783C365.369 929.418 376.29 917.901 383.932 902.584C390.241 889.947 390.592 887.944 390.592 864.612C390.592 830.141 383.757 810.001 363.87 785.886C354.53 774.562 328.624 754.843 323.14 754.886C321.374 754.9 308.547 760.592 294.64 767.534ZM560.826 757.347C561.415 757.979 569.182 763.156 578.083 768.85C596.303 780.504 623.573 806.734 637.956 826.441L647.549 839.581L649.357 828.78C651.853 813.844 647.089 802.742 631.768 787.801C618.333 774.701 602.766 766.711 581.436 761.969C573.781 760.268 565.773 758.273 563.638 757.536C561.503 756.801 560.237 756.715 560.826 757.347ZM430.221 779.006C422.011 785.379 425.917 804.724 436.512 810.157C447.559 815.827 460.184 808.066 460.184 795.607C460.184 782.325 440.206 771.255 430.221 779.006ZM657.701 846.79C655.365 851.849 655.736 854.245 660.631 865.78C665.397 877.012 666.076 881.123 665.177 893.348C664.594 901.25 663.431 909.296 662.594 911.23C661.494 913.773 664.093 917.806 672.007 925.828C682.057 936.013 683.887 937.004 694.632 938.067C711.988 939.783 712.647 941.413 698.635 947.938C691.737 951.148 679.348 958.993 671.104 965.368C647.712 983.456 649.828 983.396 626.794 966.627C603.729 949.835 578.408 937.478 567.064 937.478C557.586 937.478 547.978 944.11 547.978 950.651C547.978 961.961 567.229 967.983 578.301 960.136L584.798 955.532L592.083 962.302C604.787 974.104 601.031 980.6 574.862 992.082C565.8 996.06 557.494 997.684 539.792 998.94C527.034 999.845 514.634 1001.59 512.238 1002.82C507.837 1005.08 501.478 1016.74 503.561 1018.74C506.058 1021.13 543.55 1022 557.004 1019.98C564.914 1018.79 577.22 1015.31 584.351 1012.24C608.301 1001.94 601.862 1013.16 576.903 1025.22C566.188 1030.39 558.083 1032.74 548.404 1033.49C538.856 1034.22 535.55 1035.17 537.156 1036.71C540.379 1039.8 574.698 1039.47 588.244 1036.21C594.49 1034.71 600.213 1034.07 600.963 1034.79C605.072 1038.73 583.498 1047.63 564.627 1049.78C547.426 1051.74 555.668 1054.48 578.618 1054.43C604.258 1054.38 608.837 1052.79 636.616 1034.33C646.948 1027.47 660.378 1020.29 666.464 1018.38C690.932 1010.7 723.514 991.551 734.29 978.507C744.215 966.497 744.686 958.913 736.544 942.215C732.797 934.531 722.639 918.081 713.971 905.663C698.592 883.633 665.359 842.592 662.04 841.533C661.123 841.24 659.172 843.606 657.701 846.79ZM463.3 854.257C456.411 860.858 455.885 875.885 462.326 882.059C468.48 887.958 480.39 887.508 487.047 881.125C498.533 870.117 490.756 849.218 475.174 849.218C471.002 849.218 466.613 851.079 463.3 854.257ZM574.648 854.257C570.798 857.945 569.391 861.519 569.391 867.599C569.391 878.553 575.079 884.111 586.284 884.111C597.513 884.111 603.627 878.992 605.117 868.34C606.138 861.045 605.505 859.017 600.798 854.505C593.383 847.399 581.916 847.288 574.648 854.257Z" fill="black"/>
</svg>
