<svg width="1440" height="1024" viewBox="0 0 1440 1024" fill="none" xmlns="http://www.w3.org/2000/svg">
<rect width="1440" height="1024" fill="#F5F5F5"/>
<g clip-path="url(#clip0_0_1)">
<rect width="1440" height="1024" fill="white"/>
<path d="M1109.5 349C1109.5 536.863 944.044 689.5 739.5 689.5C534.956 689.5 369.5 536.863 369.5 349C369.5 161.137 534.956 8.5 739.5 8.5C944.044 8.5 1109.5 161.137 1109.5 349Z" fill="#D9D9D9" stroke="black" stroke-width="5"/>
<path d="M1109.5 349C1109.5 536.863 944.044 689.5 739.5 689.5C534.956 689.5 369.5 536.863 369.5 349C369.5 161.137 534.956 8.5 739.5 8.5C944.044 8.5 1109.5 161.137 1109.5 349Z" fill="#FBD5A7" stroke="black" stroke-width="5"/>
<path d="M1075.5 368.5C1075.5 545.685 925.616 689.5 740.5 689.5C555.384 689.5 405.5 545.685 405.5 368.5C405.5 191.315 555.384 47.5 740.5 47.5C925.616 47.5 1075.5 191.315 1075.5 368.5Z" fill="#FFEBD3" stroke="black" stroke-width="5"/>
<path d="M438.5 245.5V278C633.833 274.333 1044.5 281.6 1038.5 278C1031 273.5 1023.06 256 1038.5 256C1055.5 256 1029.5 225 1021.5 212.5C1013.5 200 1018.5 214.5 996.5 186.5C974.5 158.5 971.5 156.5 950 138C928.5 119.5 902 86.5 874 97.5C855.402 104.806 844 94.6142 824 85.1142C804 75.6142 796.5 57.5 788.5 59C780.5 60.5 752.5 71 737 71C724.6 71 718.5 38.5 695 71C695 33.5 657.8 82.7142 649 85.1142C640.2 87.5142 607 98.6666 589.5 107L542.5 121C531.5 142.833 508.5 170.5 488.5 186.5C475.456 196.935 455.167 252.167 438.5 245.5Z" fill="#EE5600" stroke="black" stroke-width="5"/>
<path d="M368.5 433.5H1109.5V1015.5H368.5V433.5Z" fill="#FBD5A7" stroke="black" stroke-width="5"/>
<path d="M500 597H742V992H500V597Z" fill="#1E401D"/>
<rect x="861" y="903" width="69" height="110" fill="#2A7D1C"/>
<rect x="861" y="903" width="69" height="110" fill="#2A7D1C"/>
<rect x="861" y="903" width="69" height="110" fill="#2A7D1C"/>
<g filter="url(#filter0_d_0_1)">
<g filter="url(#filter1_d_0_1)">
<path d="M984.68 735.59V1015.5H887.59H790.5V735.59C790.5 681.969 833.969 638.5 887.59 638.5C941.212 638.5 984.68 681.969 984.68 735.59Z" fill="white" stroke="black" stroke-width="5"/>
<path d="M889.106 652.005V1015.5H845.827H802.547V741.03C802.547 692.68 841.076 653.329 889.106 652.005Z" fill="#808A3E" stroke="black" stroke-width="5"/>
<path d="M890.09 652.006V1015.5H932.165H974.239V738.62C974.239 691.601 936.789 653.329 890.09 652.006Z" fill="#808A3E" stroke="black" stroke-width="5"/>
<rect x="874.5" y="653.5" width="25" height="362" rx="2.5" fill="white" stroke="black" stroke-width="5"/>
<path d="M877 643H897V656H877V643Z" fill="white"/>
</g>
<rect x="888.5" y="801.5" width="5.42517" height="63.4685" fill="#D85943"/>
<rect x="888.5" y="801.5" width="5.42517" height="63.4685" stroke="black"/>
<rect x="880.5" y="801.5" width="5.42517" height="63.4685" fill="#D85943"/>
<rect x="880.5" y="801.5" width="5.42517" height="63.4685" stroke="black"/>
<rect x="805" y="903" width="67" height="110" fill="#2A7D1C"/>
<rect x="805" y="903" width="67" height="110" fill="#2A7D1C"/>
<rect x="805" y="903" width="67" height="110" fill="#2A7D1C"/>
<rect x="902" y="903" width="69" height="110" fill="#2A7D1C"/>
<rect x="902" y="903" width="69" height="110" fill="#2A7D1C"/>
<rect x="902" y="903" width="69" height="110" fill="#2A7D1C"/>
</g>
<g filter="url(#filter2_d_0_1)">
<path d="M731.654 760.484H623.616H515.578C516.907 701.933 564.78 654.5 623.616 654.5C682.452 654.5 730.325 701.933 731.654 760.484Z" fill="white" stroke="black" stroke-width="5"/>
<path d="M625.574 665.985V760.484H581.708H537.841V756.184C537.841 707.185 576.896 667.309 625.574 665.985Z" fill="#808A3E" stroke="black" stroke-width="5"/>
<path d="M626.116 665.985V760.484H669.982H713.849V756.184C713.849 707.185 674.794 667.309 626.116 665.985Z" fill="#808A3E" stroke="black" stroke-width="5"/>
<rect x="616.308" y="666.832" width="14.6166" height="93.6528" rx="2.5" fill="#D9D9D9" stroke="black" stroke-width="5"/>
<rect x="618.266" y="663.451" width="10.6999" height="12.3316" fill="#D9D9D9"/>
</g>
<path d="M499.5 761.08H743.274V782C743.274 802.711 726.484 819.5 705.774 819.5H537C516.289 819.5 499.5 802.711 499.5 782V761.08Z" fill="white" stroke="black" stroke-width="5"/>
<rect x="500.392" y="763.723" width="242.882" height="11.7358" fill="#D85943" stroke="black" stroke-width="5"/>
<path d="M650.436 778.839C649.493 778.839 635.289 784.882 631.585 788.435C631.309 788.7 631.099 789.016 630.912 789.35L630.092 790.812C629.367 792.104 629.146 793.618 629.471 795.064L632.366 807.932C632.826 809.977 634.642 811.43 636.739 811.43C637.484 811.43 638.218 811.244 638.873 810.889L643.834 808.202C646.944 806.517 647.93 802.521 645.959 799.583L641.42 792.819L643.853 799.726C644.535 801.663 643.507 803.783 641.565 804.449C639.463 805.169 637.206 803.885 636.751 801.71L635.642 796.407C635.072 793.676 636.458 790.912 638.989 789.737L644.843 787.019C646.811 786.105 649.12 786.326 650.88 787.596L659.191 793.592C660.874 794.806 661.576 796.97 660.928 798.941L658.87 805.192C658.247 807.087 660.274 808.761 662.017 807.79L673.198 801.073C675.178 799.883 677.746 800.93 678.329 803.165C678.848 805.152 680.972 806.253 682.894 805.531L684.675 804.863C685.273 804.638 685.907 804.526 686.546 804.533L733.119 804.997C736.612 805.098 738.986 805.129 739.532 805.061L733.119 804.997C718.202 804.566 682.874 802.863 682.239 802.166C681.84 801.728 681.255 799.844 680.691 797.689C679.963 794.91 676.676 793.635 674.346 795.314L671.581 797.308C669.174 799.044 665.991 796.566 667.081 793.807C667.565 792.583 667.187 791.187 666.148 790.379C660.328 785.851 651.143 778.839 650.436 778.839Z" fill="#FFC700"/>
<path d="M650.436 778.839C649.493 778.839 635.289 784.882 631.585 788.435C631.309 788.7 631.099 789.016 630.912 789.35L630.092 790.812C629.367 792.104 629.146 793.618 629.471 795.064L632.366 807.932C632.826 809.977 634.642 811.43 636.739 811.43V811.43C637.484 811.43 638.218 811.244 638.873 810.889L643.834 808.202C646.944 806.517 647.93 802.521 645.959 799.583L641.42 792.819L643.853 799.726C644.535 801.663 643.507 803.783 641.565 804.449V804.449C639.463 805.169 637.206 803.885 636.751 801.71L635.642 796.407C635.072 793.676 636.458 790.912 638.989 789.737L644.843 787.019C646.811 786.105 649.12 786.326 650.88 787.596L659.191 793.592C660.874 794.806 661.576 796.97 660.928 798.941L658.87 805.192C658.247 807.087 660.274 808.761 662.017 807.79V807.79L673.198 801.073C675.178 799.883 677.746 800.93 678.329 803.165V803.165C678.848 805.152 680.972 806.253 682.894 805.531L684.675 804.863C685.273 804.638 685.907 804.526 686.546 804.533L739.532 805.061C736.652 805.419 683.023 803.026 682.239 802.166C681.84 801.728 681.255 799.844 680.691 797.689C679.963 794.91 676.676 793.635 674.346 795.314L671.581 797.308C669.174 799.044 665.991 796.566 667.081 793.807V793.807C667.565 792.583 667.187 791.187 666.148 790.379C660.328 785.851 651.143 778.839 650.436 778.839Z" stroke="black" stroke-width="2"/>
<path d="M596.104 778.839C597.077 778.839 611.744 784.884 615.564 788.437C615.847 788.7 616.065 789.017 616.258 789.351L617.077 790.766C617.841 792.085 618.074 793.645 617.729 795.129L614.785 807.807C614.293 809.928 612.402 811.43 610.224 811.43C609.466 811.43 608.72 811.246 608.048 810.894L602.939 808.213C599.747 806.538 598.742 802.447 600.794 799.484L605.41 792.819L602.956 799.569C602.225 801.58 603.299 803.798 605.329 804.472C607.474 805.184 609.762 803.877 610.239 801.668L611.356 796.489C611.954 793.722 610.535 790.913 607.952 789.752L601.693 786.937C599.767 786.07 597.526 786.281 595.795 787.491L587.085 793.579C585.346 794.795 584.619 797.013 585.301 799.022L587.358 805.078C588.018 807.021 585.954 808.765 584.149 807.79L572.513 801.018C570.498 799.845 567.919 800.906 567.313 803.156C566.773 805.16 564.634 806.271 562.684 805.562L560.75 804.859C560.139 804.637 559.493 804.526 558.843 804.533L510.754 804.997C507.148 805.098 504.697 805.129 504.133 805.061L510.754 804.997C526.151 804.566 562.619 802.863 563.275 802.166C563.683 801.731 564.281 799.873 564.859 797.738C565.626 794.908 568.962 793.596 571.366 795.275L574.469 797.443C576.91 799.148 580.07 796.623 578.946 793.866C578.435 792.614 578.827 791.176 579.907 790.362C585.917 785.833 595.374 778.839 596.104 778.839Z" fill="#FFC700"/>
<path d="M596.104 778.839C597.077 778.839 611.744 784.884 615.564 788.437C615.847 788.7 616.065 789.017 616.258 789.351L617.077 790.766C617.841 792.085 618.074 793.645 617.729 795.129L614.785 807.807C614.293 809.928 612.402 811.43 610.224 811.43V811.43C609.466 811.43 608.72 811.246 608.048 810.894L602.939 808.213C599.747 806.538 598.742 802.447 600.794 799.484L605.41 792.819L602.956 799.569C602.225 801.58 603.299 803.798 605.329 804.472V804.472C607.474 805.184 609.762 803.877 610.239 801.668L611.356 796.489C611.954 793.722 610.535 790.913 607.952 789.752L601.693 786.937C599.767 786.07 597.526 786.281 595.795 787.491L587.085 793.579C585.346 794.795 584.619 797.013 585.301 799.022L587.358 805.078C588.018 807.021 585.954 808.765 584.149 807.79V807.79L572.513 801.018C570.498 799.845 567.919 800.906 567.313 803.156V803.156C566.773 805.16 564.634 806.271 562.684 805.562L560.75 804.859C560.139 804.637 559.493 804.526 558.843 804.533L504.133 805.061C507.107 805.419 562.465 803.026 563.275 802.166C563.683 801.731 564.281 799.873 564.859 797.738C565.626 794.908 568.962 793.596 571.366 795.275L574.469 797.443C576.91 799.148 580.07 796.623 578.946 793.866V793.866C578.435 792.614 578.827 791.176 579.907 790.362C585.917 785.833 595.374 778.839 596.104 778.839Z" stroke="black" stroke-width="2"/>
<path d="M368.5 281.5H1109.5V302.5H368.5V281.5Z" fill="white" stroke="black" stroke-width="5"/>
<g filter="url(#filter3_d_0_1)">
<rect x="366" y="413" width="746" height="26" fill="white"/>
<rect x="368.5" y="415.5" width="741" height="21" stroke="black" stroke-width="5"/>
</g>
<path d="M369.5 307.5H1109.5V410.5H369.5V307.5Z" fill="#E24A19" stroke="black" stroke-width="5"/>
<rect opacity="0.5" x="802.5" y="879.5" width="172" height="21" fill="white" stroke="black" stroke-width="5"/>
<rect x="802.5" y="879.5" width="172" height="21" fill="white" stroke="black" stroke-width="5"/>
<rect x="877" y="877" width="20" height="26" fill="white"/>
<rect x="971" y="882" width="9" height="16" fill="white"/>
<rect x="798" y="882" width="9" height="16" fill="white"/>
<g filter="url(#filter4_i_0_1)">
<path d="M383 854H483L458.5 1016H406L383 854Z" fill="#B35601"/>
</g>
<path d="M408.17 1013.5L385.88 856.5H480.093L456.35 1013.5H408.17Z" stroke="black" stroke-width="5"/>
<g filter="url(#filter5_i_0_1)">
<path d="M997 854H1097L1072.5 1016H1020L997 854Z" fill="#B95900"/>
</g>
<path d="M1022.17 1013.5L999.88 856.5H1094.09L1070.35 1013.5H1022.17Z" stroke="black" stroke-width="5"/>
<g filter="url(#filter6_i_0_1)">
<path d="M382.003 780.31L395.921 849.188C396.487 851.987 398.947 854 401.802 854H469.666C472.274 854 474.601 852.319 475.156 849.772C480.118 827.015 477.442 777.801 481.805 768.96C487.628 757.162 474.042 780.757 474.042 768.96C474.042 761.413 472.387 737.228 473.047 719.378C473.225 714.577 467.866 711.044 463.694 713.428C459.873 715.612 455.119 712.853 455.119 708.452V682.007C455.119 677.89 450.573 675.395 447.1 677.607C444.112 679.51 440.137 677.945 439.248 674.515L432.617 648.909C430.968 642.545 421.759 643.084 420.864 649.597L415.151 691.171C414.498 695.924 408.04 696.875 406.045 692.512C403.904 687.83 396.894 689.357 396.894 694.505V774.868C396.894 778.901 391.684 780.512 389.408 777.183C386.885 773.493 381.118 775.929 382.003 780.31Z" fill="#1E401D"/>
</g>
<path d="M382.003 780.31L395.921 849.188C396.487 851.987 398.947 854 401.802 854H469.666C472.274 854 474.601 852.319 475.156 849.772C480.118 827.015 477.442 777.801 481.805 768.96C487.628 757.162 474.042 780.757 474.042 768.96C474.042 761.413 472.387 737.228 473.047 719.378C473.225 714.577 467.866 711.044 463.694 713.428C459.873 715.612 455.119 712.853 455.119 708.452V682.007C455.119 677.89 450.573 675.395 447.1 677.607C444.112 679.51 440.137 677.945 439.248 674.515L432.617 648.909C430.968 642.545 421.759 643.084 420.864 649.597L415.151 691.171C414.498 695.924 408.04 696.875 406.045 692.512C403.904 687.83 396.894 689.357 396.894 694.505V774.868C396.894 778.901 391.684 780.512 389.408 777.183C386.885 773.493 381.118 775.929 382.003 780.31Z" stroke="black" stroke-width="5"/>
<g filter="url(#filter7_i_0_1)">
<path d="M996.003 780.81L1009.92 849.688C1010.49 852.487 1012.95 854.5 1015.8 854.5H1083.67C1086.27 854.5 1088.6 852.819 1089.16 850.272C1094.12 827.515 1091.44 778.301 1095.81 769.46C1101.63 757.662 1088.04 781.257 1088.04 769.46C1088.04 761.913 1086.39 737.728 1087.05 719.878C1087.22 715.077 1081.87 711.544 1077.69 713.928C1073.87 716.112 1069.12 713.353 1069.12 708.952V682.507C1069.12 678.39 1064.57 675.895 1061.1 678.107C1058.11 680.01 1054.14 678.445 1053.25 675.015L1046.62 649.409C1044.97 643.045 1035.76 643.584 1034.86 650.097L1029.15 691.671C1028.5 696.424 1022.04 697.375 1020.04 693.012C1017.9 688.33 1010.89 689.857 1010.89 695.005V775.368C1010.89 779.401 1005.68 781.012 1003.41 777.683C1000.88 773.993 995.118 776.429 996.003 780.81Z" fill="#1E401D"/>
</g>
<path d="M996.003 780.81L1009.92 849.688C1010.49 852.487 1012.95 854.5 1015.8 854.5H1083.67C1086.27 854.5 1088.6 852.819 1089.16 850.272C1094.12 827.515 1091.44 778.301 1095.81 769.46C1101.63 757.662 1088.04 781.257 1088.04 769.46C1088.04 761.913 1086.39 737.728 1087.05 719.878C1087.22 715.077 1081.87 711.544 1077.69 713.928C1073.87 716.112 1069.12 713.353 1069.12 708.952V682.507C1069.12 678.39 1064.57 675.895 1061.1 678.107C1058.11 680.01 1054.14 678.445 1053.25 675.015L1046.62 649.409C1044.97 643.045 1035.76 643.584 1034.86 650.097L1029.15 691.671C1028.5 696.424 1022.04 697.375 1020.04 693.012C1017.9 688.33 1010.89 689.857 1010.89 695.005V775.368C1010.89 779.401 1005.68 781.012 1003.41 777.683C1000.88 773.993 995.118 776.429 996.003 780.81Z" stroke="black" stroke-width="5"/>
<g filter="url(#filter8_d_0_1)">
<mask id="path-43-outside-1_0_1" maskUnits="userSpaceOnUse" x="496" y="317" width="495" height="85" fill="black">
<rect fill="white" x="496" y="317" width="495" height="85"/>
<path d="M501.379 397V322.818H533.399C538.904 322.818 543.722 323.905 547.851 326.078C551.98 328.251 555.192 331.306 557.486 335.242C559.78 339.178 560.927 343.778 560.927 349.043C560.927 354.355 559.744 358.955 557.377 362.843C555.035 366.731 551.739 369.725 547.489 371.826C543.263 373.927 538.325 374.977 532.674 374.977H513.549V359.33H528.618C530.984 359.33 533 358.919 534.667 358.098C536.357 357.253 537.649 356.058 538.542 354.512C539.46 352.967 539.919 351.143 539.919 349.043C539.919 346.918 539.46 345.107 538.542 343.609C537.649 342.088 536.357 340.929 534.667 340.132C533 339.311 530.984 338.901 528.618 338.901H521.518V397H501.379ZM589.651 322.818V397H569.512V322.818H589.651ZM600.68 397V385.844L635.743 339.045H600.825V322.818H661.388V333.974L626.325 380.773H661.243V397H600.68ZM672.698 397V385.844L707.76 339.045H672.843V322.818H733.405V333.974L698.343 380.773H733.26V397H672.698ZM744.426 397V322.818H797.889V339.045H764.565V351.795H795.136V368.023H764.565V380.773H797.744V397H744.426ZM809.072 397V322.818H841.092C846.598 322.818 851.415 323.82 855.545 325.825C859.674 327.829 862.885 330.714 865.18 334.482C867.474 338.249 868.621 342.764 868.621 348.028C868.621 353.341 867.437 357.82 865.071 361.467C862.729 365.113 859.432 367.866 855.182 369.725C850.957 371.585 846.018 372.514 840.368 372.514H821.243V356.866H836.311C838.677 356.866 840.694 356.577 842.36 355.997C844.05 355.393 845.342 354.44 846.236 353.136C847.153 351.832 847.612 350.129 847.612 348.028C847.612 345.903 847.153 344.177 846.236 342.849C845.342 341.496 844.05 340.506 842.36 339.879C840.694 339.227 838.677 338.901 836.311 338.901H829.211V397H809.072ZM852.538 362.952L871.084 397H849.206L831.095 362.952H852.538ZM898.54 322.818V397H878.4V322.818H898.54ZM928.549 397H906.816L931.302 322.818H958.83L983.316 397H961.583L945.356 343.247H944.776L928.549 397ZM924.492 367.733H965.35V382.801H924.492V367.733Z"/>
</mask>
<path d="M501.379 397V322.818H533.399C538.904 322.818 543.722 323.905 547.851 326.078C551.98 328.251 555.192 331.306 557.486 335.242C559.78 339.178 560.927 343.778 560.927 349.043C560.927 354.355 559.744 358.955 557.377 362.843C555.035 366.731 551.739 369.725 547.489 371.826C543.263 373.927 538.325 374.977 532.674 374.977H513.549V359.33H528.618C530.984 359.33 533 358.919 534.667 358.098C536.357 357.253 537.649 356.058 538.542 354.512C539.46 352.967 539.919 351.143 539.919 349.043C539.919 346.918 539.46 345.107 538.542 343.609C537.649 342.088 536.357 340.929 534.667 340.132C533 339.311 530.984 338.901 528.618 338.901H521.518V397H501.379ZM589.651 322.818V397H569.512V322.818H589.651ZM600.68 397V385.844L635.743 339.045H600.825V322.818H661.388V333.974L626.325 380.773H661.243V397H600.68ZM672.698 397V385.844L707.76 339.045H672.843V322.818H733.405V333.974L698.343 380.773H733.26V397H672.698ZM744.426 397V322.818H797.889V339.045H764.565V351.795H795.136V368.023H764.565V380.773H797.744V397H744.426ZM809.072 397V322.818H841.092C846.598 322.818 851.415 323.82 855.545 325.825C859.674 327.829 862.885 330.714 865.18 334.482C867.474 338.249 868.621 342.764 868.621 348.028C868.621 353.341 867.437 357.82 865.071 361.467C862.729 365.113 859.432 367.866 855.182 369.725C850.957 371.585 846.018 372.514 840.368 372.514H821.243V356.866H836.311C838.677 356.866 840.694 356.577 842.36 355.997C844.05 355.393 845.342 354.44 846.236 353.136C847.153 351.832 847.612 350.129 847.612 348.028C847.612 345.903 847.153 344.177 846.236 342.849C845.342 341.496 844.05 340.506 842.36 339.879C840.694 339.227 838.677 338.901 836.311 338.901H829.211V397H809.072ZM852.538 362.952L871.084 397H849.206L831.095 362.952H852.538ZM898.54 322.818V397H878.4V322.818H898.54ZM928.549 397H906.816L931.302 322.818H958.83L983.316 397H961.583L945.356 343.247H944.776L928.549 397ZM924.492 367.733H965.35V382.801H924.492V367.733Z" fill="white"/>
<path d="M501.379 397H496.379V402H501.379V397ZM501.379 322.818V317.818H496.379V322.818H501.379ZM547.851 326.078L545.522 330.503L545.522 330.503L547.851 326.078ZM557.486 335.242L561.806 332.724L561.806 332.724L557.486 335.242ZM557.377 362.843L553.106 360.243L553.101 360.253L553.095 360.263L557.377 362.843ZM547.489 371.826L545.273 367.344L545.263 367.349L547.489 371.826ZM513.549 374.977H508.549V379.977H513.549V374.977ZM513.549 359.33V354.33H508.549V359.33H513.549ZM534.667 358.098L536.877 362.583L536.89 362.577L536.903 362.57L534.667 358.098ZM538.542 354.512L534.243 351.959L534.228 351.984L534.214 352.01L538.542 354.512ZM538.542 343.609L534.231 346.141L534.255 346.182L534.279 346.222L538.542 343.609ZM534.667 340.132L532.457 344.617L532.495 344.636L532.534 344.655L534.667 340.132ZM521.518 338.901V333.901H516.518V338.901H521.518ZM521.518 397V402H526.518V397H521.518ZM506.379 397V322.818H496.379V397H506.379ZM501.379 327.818H533.399V317.818H501.379V327.818ZM533.399 327.818C538.239 327.818 542.23 328.77 545.522 330.503L550.18 321.654C545.214 319.04 539.57 317.818 533.399 317.818V327.818ZM545.522 330.503C548.844 332.251 551.356 334.654 553.166 337.76L561.806 332.724C559.028 327.958 555.117 324.252 550.18 321.654L545.522 330.503ZM553.166 337.76C554.95 340.82 555.927 344.524 555.927 349.043H565.927C565.927 343.033 564.611 337.537 561.806 332.724L553.166 337.76ZM555.927 349.043C555.927 353.594 554.921 357.262 553.106 360.243L561.648 365.443C564.567 360.649 565.927 355.117 565.927 349.043H555.927ZM553.095 360.263C551.268 363.295 548.707 365.646 545.273 367.344L549.705 376.308C554.771 373.804 558.802 370.167 561.66 365.423L553.095 360.263ZM545.263 367.349C541.852 369.044 537.703 369.977 532.674 369.977V379.977C538.946 379.977 544.674 378.809 549.715 376.303L545.263 367.349ZM532.674 369.977H513.549V379.977H532.674V369.977ZM518.549 374.977V359.33H508.549V374.977H518.549ZM513.549 364.33H528.618V354.33H513.549V364.33ZM528.618 364.33C531.547 364.33 534.361 363.823 536.877 362.583L532.457 353.613C531.64 354.015 530.421 354.33 528.618 354.33V364.33ZM536.903 362.57C539.414 361.314 541.458 359.458 542.871 357.015L534.214 352.01C533.839 352.657 533.3 353.191 532.43 353.626L536.903 362.57ZM542.842 357.065C544.29 354.625 544.919 351.888 544.919 349.043H534.919C534.919 350.399 534.629 351.308 534.243 351.959L542.842 357.065ZM544.919 349.043C544.919 346.19 544.297 343.431 542.805 340.997L534.279 346.222C534.623 346.782 534.919 347.645 534.919 349.043H544.919ZM542.854 341.077C541.42 338.636 539.342 336.809 536.799 335.609L532.534 344.655C533.371 345.049 533.878 345.541 534.231 346.141L542.854 341.077ZM536.877 335.647C534.361 334.407 531.547 333.901 528.618 333.901V343.901C530.421 343.901 531.64 344.215 532.457 344.617L536.877 335.647ZM528.618 333.901H521.518V343.901H528.618V333.901ZM516.518 338.901V397H526.518V338.901H516.518ZM521.518 392H501.379V402H521.518V392ZM589.651 322.818H594.651V317.818H589.651V322.818ZM589.651 397V402H594.651V397H589.651ZM569.512 397H564.512V402H569.512V397ZM569.512 322.818V317.818H564.512V322.818H569.512ZM584.651 322.818V397H594.651V322.818H584.651ZM589.651 392H569.512V402H589.651V392ZM574.512 397V322.818H564.512V397H574.512ZM569.512 327.818H589.651V317.818H569.512V327.818ZM600.68 397H595.68V402H600.68V397ZM600.68 385.844L596.679 382.846L595.68 384.178V385.844H600.68ZM635.743 339.045L639.744 342.043L645.737 334.045H635.743V339.045ZM600.825 339.045H595.825V344.045H600.825V339.045ZM600.825 322.818V317.818H595.825V322.818H600.825ZM661.388 322.818H666.388V317.818H661.388V322.818ZM661.388 333.974L665.389 336.972L666.388 335.64V333.974H661.388ZM626.325 380.773L622.324 377.775L616.331 385.773H626.325V380.773ZM661.243 380.773H666.243V375.773H661.243V380.773ZM661.243 397V402H666.243V397H661.243ZM605.68 397V385.844H595.68V397H605.68ZM604.682 388.842L639.744 342.043L631.741 336.047L596.679 382.846L604.682 388.842ZM635.743 334.045H600.825V344.045H635.743V334.045ZM605.825 339.045V322.818H595.825V339.045H605.825ZM600.825 327.818H661.388V317.818H600.825V327.818ZM656.388 322.818V333.974H666.388V322.818H656.388ZM657.386 330.976L622.324 377.775L630.327 383.771L665.389 336.972L657.386 330.976ZM626.325 385.773H661.243V375.773H626.325V385.773ZM656.243 380.773V397H666.243V380.773H656.243ZM661.243 392H600.68V402H661.243V392ZM672.698 397H667.698V402H672.698V397ZM672.698 385.844L668.696 382.846L667.698 384.178V385.844H672.698ZM707.76 339.045L711.762 342.043L717.754 334.045H707.76V339.045ZM672.843 339.045H667.843V344.045H672.843V339.045ZM672.843 322.818V317.818H667.843V322.818H672.843ZM733.405 322.818H738.405V317.818H733.405V322.818ZM733.405 333.974L737.407 336.972L738.405 335.64V333.974H733.405ZM698.343 380.773L694.341 377.775L688.349 385.773H698.343V380.773ZM733.26 380.773H738.26V375.773H733.26V380.773ZM733.26 397V402H738.26V397H733.26ZM677.698 397V385.844H667.698V397H677.698ZM676.699 388.842L711.762 342.043L703.759 336.047L668.696 382.846L676.699 388.842ZM707.76 334.045H672.843V344.045H707.76V334.045ZM677.843 339.045V322.818H667.843V339.045H677.843ZM672.843 327.818H733.405V317.818H672.843V327.818ZM728.405 322.818V333.974H738.405V322.818H728.405ZM729.404 330.976L694.341 377.775L702.344 383.771L737.407 336.972L729.404 330.976ZM698.343 385.773H733.26V375.773H698.343V385.773ZM728.26 380.773V397H738.26V380.773H728.26ZM733.26 392H672.698V402H733.26V392ZM744.426 397H739.426V402H744.426V397ZM744.426 322.818V317.818H739.426V322.818H744.426ZM797.889 322.818H802.889V317.818H797.889V322.818ZM797.889 339.045V344.045H802.889V339.045H797.889ZM764.565 339.045V334.045H759.565V339.045H764.565ZM764.565 351.795H759.565V356.795H764.565V351.795ZM795.136 351.795H800.136V346.795H795.136V351.795ZM795.136 368.023V373.023H800.136V368.023H795.136ZM764.565 368.023V363.023H759.565V368.023H764.565ZM764.565 380.773H759.565V385.773H764.565V380.773ZM797.744 380.773H802.744V375.773H797.744V380.773ZM797.744 397V402H802.744V397H797.744ZM749.426 397V322.818H739.426V397H749.426ZM744.426 327.818H797.889V317.818H744.426V327.818ZM792.889 322.818V339.045H802.889V322.818H792.889ZM797.889 334.045H764.565V344.045H797.889V334.045ZM759.565 339.045V351.795H769.565V339.045H759.565ZM764.565 356.795H795.136V346.795H764.565V356.795ZM790.136 351.795V368.023H800.136V351.795H790.136ZM795.136 363.023H764.565V373.023H795.136V363.023ZM759.565 368.023V380.773H769.565V368.023H759.565ZM764.565 385.773H797.744V375.773H764.565V385.773ZM792.744 380.773V397H802.744V380.773H792.744ZM797.744 392H744.426V402H797.744V392ZM809.072 397H804.072V402H809.072V397ZM809.072 322.818V317.818H804.072V322.818H809.072ZM865.18 334.482L869.45 331.881L869.45 331.881L865.18 334.482ZM865.071 361.467L860.877 358.745L860.87 358.754L860.864 358.764L865.071 361.467ZM855.182 369.725L853.178 365.144L853.169 365.149L855.182 369.725ZM821.243 372.514H816.243V377.514H821.243V372.514ZM821.243 356.866V351.866H816.243V356.866H821.243ZM842.36 355.997L844.003 360.72L844.022 360.713L844.042 360.706L842.36 355.997ZM846.236 353.136L842.147 350.258L842.129 350.284L842.111 350.309L846.236 353.136ZM846.236 342.849L842.064 345.605L842.093 345.648L842.122 345.691L846.236 342.849ZM842.36 339.879L840.538 344.535L840.578 344.551L840.619 344.566L842.36 339.879ZM829.211 338.901V333.901H824.211V338.901H829.211ZM829.211 397V402H834.211V397H829.211ZM852.538 362.952L856.929 360.56L855.508 357.952H852.538V362.952ZM871.084 397V402H879.501L875.475 394.608L871.084 397ZM849.206 397L844.791 399.348L846.202 402H849.206V397ZM831.095 362.952V357.952H822.772L826.681 365.3L831.095 362.952ZM814.072 397V322.818H804.072V397H814.072ZM809.072 327.818H841.092V317.818H809.072V327.818ZM841.092 327.818C845.991 327.818 850.035 328.708 853.361 330.323L857.728 321.326C852.796 318.932 847.205 317.818 841.092 317.818V327.818ZM853.361 330.323C856.664 331.926 859.135 334.169 860.909 337.082L869.45 331.881C866.636 327.26 862.684 323.732 857.728 321.326L853.361 330.323ZM860.909 337.082C862.641 339.926 863.621 343.503 863.621 348.028H873.621C873.621 342.026 872.306 336.571 869.45 331.881L860.909 337.082ZM863.621 348.028C863.621 352.591 862.611 356.073 860.877 358.745L869.265 364.189C872.264 359.568 873.621 354.091 873.621 348.028H863.621ZM860.864 358.764C859.093 361.522 856.592 363.651 853.178 365.144L857.186 374.306C862.273 372.081 866.364 368.704 869.278 364.169L860.864 358.764ZM853.169 365.149C849.703 366.674 845.476 367.514 840.368 367.514V377.514C846.56 377.514 852.21 376.495 857.196 374.302L853.169 365.149ZM840.368 367.514H821.243V377.514H840.368V367.514ZM826.243 372.514V356.866H816.243V372.514H826.243ZM821.243 361.866H836.311V351.866H821.243V361.866ZM836.311 361.866C839.058 361.866 841.662 361.534 844.003 360.72L840.717 351.275C839.725 351.62 838.297 351.866 836.311 351.866V361.866ZM844.042 360.706C846.584 359.798 848.792 358.25 850.36 355.962L842.111 350.309C841.892 350.629 841.516 350.989 840.678 351.288L844.042 360.706ZM850.325 356.013C851.998 353.636 852.612 350.836 852.612 348.028H842.612C842.612 349.423 842.309 350.028 842.147 350.258L850.325 356.013ZM852.612 348.028C852.612 345.205 852.001 342.398 850.349 340.007L842.122 345.691C842.305 345.956 842.612 346.601 842.612 348.028H852.612ZM850.407 340.092C848.864 337.756 846.668 336.145 844.101 335.191L840.619 344.566C841.432 344.868 841.821 345.237 842.064 345.605L850.407 340.092ZM844.182 335.222C841.781 334.283 839.111 333.901 836.311 333.901V343.901C838.244 343.901 839.606 344.17 840.538 344.535L844.182 335.222ZM836.311 333.901H829.211V343.901H836.311V333.901ZM824.211 338.901V397H834.211V338.901H824.211ZM829.211 392H809.072V402H829.211V392ZM848.147 365.343L866.693 399.392L875.475 394.608L856.929 360.56L848.147 365.343ZM871.084 392H849.206V402H871.084V392ZM853.62 394.652L835.509 360.604L826.681 365.3L844.791 399.348L853.62 394.652ZM831.095 367.952H852.538V357.952H831.095V367.952ZM898.54 322.818H903.54V317.818H898.54V322.818ZM898.54 397V402H903.54V397H898.54ZM878.4 397H873.4V402H878.4V397ZM878.4 322.818V317.818H873.4V322.818H878.4ZM893.54 322.818V397H903.54V322.818H893.54ZM898.54 392H878.4V402H898.54V392ZM883.4 397V322.818H873.4V397H883.4ZM878.4 327.818H898.54V317.818H878.4V327.818ZM928.549 397V402H932.263L933.336 398.445L928.549 397ZM906.816 397L902.068 395.433L899.9 402H906.816V397ZM931.302 322.818V317.818H927.687L926.554 321.251L931.302 322.818ZM958.83 322.818L963.578 321.251L962.445 317.818H958.83V322.818ZM983.316 397V402H990.232L988.064 395.433L983.316 397ZM961.583 397L956.797 398.445L957.87 402H961.583V397ZM945.356 343.247L950.143 341.802L949.069 338.247H945.356V343.247ZM944.776 343.247V338.247H941.063L939.99 341.802L944.776 343.247ZM924.492 367.733V362.733H919.492V367.733H924.492ZM965.35 367.733H970.35V362.733H965.35V367.733ZM965.35 382.801V387.801H970.35V382.801H965.35ZM924.492 382.801H919.492V387.801H924.492V382.801ZM928.549 392H906.816V402H928.549V392ZM911.564 398.567L936.05 324.385L926.554 321.251L902.068 395.433L911.564 398.567ZM931.302 327.818H958.83V317.818H931.302V327.818ZM954.082 324.385L978.568 398.567L988.064 395.433L963.578 321.251L954.082 324.385ZM983.316 392H961.583V402H983.316V392ZM966.37 395.555L950.143 341.802L940.569 344.692L956.797 398.445L966.37 395.555ZM945.356 338.247H944.776V348.247H945.356V338.247ZM939.99 341.802L923.763 395.555L933.336 398.445L949.563 344.692L939.99 341.802ZM924.492 372.733H965.35V362.733H924.492V372.733ZM960.35 367.733V382.801H970.35V367.733H960.35ZM965.35 377.801H924.492V387.801H965.35V377.801ZM929.492 382.801V367.733H919.492V382.801H929.492Z" fill="black" mask="url(#path-43-outside-1_0_1)"/>
</g>
<path d="M1019.85 384.326L1025.67 347.747L1037.75 382.76C1039.71 388.455 1035.8 394.48 1029.8 395.005C1023.8 395.53 1018.9 390.276 1019.85 384.326Z" fill="white" stroke="black"/>
<path d="M1040.16 380.349L1027.81 345.709L1054.72 369.377C1059.29 373.393 1058.94 380.929 1054.02 384.637C1049.1 388.345 1042.26 386.227 1040.16 380.349Z" fill="white" stroke="black"/>
<path d="M1058.04 369.227L1031.6 346.055L1065.24 352.25C1071.37 353.378 1074.99 360.24 1072.52 366.056C1070.05 371.873 1062.85 373.449 1058.04 369.227Z" fill="white" stroke="black"/>
<path d="M450.322 387.455L444.578 350.718L432.649 385.882C430.746 391.493 434.611 397.418 440.516 397.943C446.421 398.469 451.238 393.316 450.322 387.455Z" fill="white" stroke="black"/>
<path d="M430.305 383.348L442.459 348.664L415.972 372.362C411.506 376.357 411.869 383.865 416.706 387.573C421.544 391.281 428.256 389.195 430.305 383.348Z" fill="white" stroke="black"/>
<path d="M412.857 372.074L438.741 348.996L405.801 355.166C399.722 356.304 396.102 363.184 398.525 368.992C400.949 374.8 408.08 376.334 412.857 372.074Z" fill="white" stroke="black"/>
<g filter="url(#filter9_d_0_1)">
<ellipse cx="767" cy="742.5" rx="12" ry="84.5" fill="#8B9E63"/>
<path d="M777 742.5C777 765.77 775.66 786.797 773.505 801.969C772.426 809.571 771.153 815.618 769.775 819.723C769.081 821.789 768.399 823.244 767.775 824.143C767.373 824.722 767.109 824.916 767 824.977C766.891 824.916 766.627 824.722 766.225 824.143C765.601 823.244 764.919 821.789 764.225 819.723C762.847 815.618 761.574 809.571 760.495 801.969C758.34 786.797 757 765.77 757 742.5C757 719.23 758.34 698.203 760.495 683.031C761.574 675.429 762.847 669.382 764.225 665.277C764.919 663.211 765.601 661.756 766.225 660.857C766.627 660.278 766.891 660.084 767 660.023C767.109 660.084 767.373 660.278 767.775 660.857C768.399 661.756 769.081 663.211 769.775 665.277C771.153 669.382 772.426 675.429 773.505 683.031C775.66 698.203 777 719.23 777 742.5Z" stroke="black" stroke-width="4"/>
</g>
<g filter="url(#filter10_d_0_1)">
<rect x="366" y="955" width="425" height="58" fill="#D9D9D9"/>
<rect x="368.5" y="957.5" width="420" height="53" stroke="black" stroke-width="5"/>
</g>
<g filter="url(#filter11_d_0_1)">
<rect x="788" y="955" width="324" height="58" fill="#981212"/>
<rect x="790.5" y="957.5" width="319" height="53" stroke="black" stroke-width="5"/>
</g>
<path d="M455.69 255.874L465 279H1056L997 194L954.345 139.978C952.458 137.589 950.231 135.491 947.734 133.751L935.487 125.22C920.728 114.94 899.437 102.871 889.41 87.9384C887.754 85.4731 885.977 83.7471 884 83.5C876.277 82.5351 846.292 90.3928 828.739 87.9848C821.167 86.9461 813.794 83.0811 806.189 82.3236L723.575 74.095C721.751 73.9133 719.915 73.8937 718.087 74.0366L615.3 82.0698C604.015 82.9518 594.108 89.9144 589.455 100.233L578.782 123.905C575.2 131.849 568.44 137.918 560.157 140.627L515.52 155.224C509.023 157.348 503.41 161.561 499.555 167.205L458.847 226.814C453.007 235.365 451.822 246.268 455.69 255.874Z" fill="#FFEF5A" stroke="black" stroke-width="5"/>
<path d="M568.157 211C568.157 235.604 549.326 255.5 526.157 255.5C502.987 255.5 484.157 235.604 484.157 211C484.157 186.396 502.987 166.5 526.157 166.5C549.326 166.5 568.157 186.396 568.157 211Z" fill="#B90F0F"/>
<path d="M568.157 211C568.157 235.604 549.326 255.5 526.157 255.5C502.987 255.5 484.157 235.604 484.157 211C484.157 186.396 502.987 166.5 526.157 166.5C549.326 166.5 568.157 186.396 568.157 211Z" fill="#B90F0F"/>
<path d="M568.157 211C568.157 235.604 549.326 255.5 526.157 255.5C502.987 255.5 484.157 235.604 484.157 211C484.157 186.396 502.987 166.5 526.157 166.5C549.326 166.5 568.157 186.396 568.157 211Z" fill="#B90F0F"/>
<path d="M568.157 211C568.157 235.604 549.326 255.5 526.157 255.5C502.987 255.5 484.157 235.604 484.157 211C484.157 186.396 502.987 166.5 526.157 166.5C549.326 166.5 568.157 186.396 568.157 211Z" stroke="black"/>
<path d="M713.5 123C713.5 147.604 694.669 167.5 671.5 167.5C648.331 167.5 629.5 147.604 629.5 123C629.5 98.396 648.331 78.5 671.5 78.5C694.669 78.5 713.5 98.396 713.5 123Z" fill="#B90F0F"/>
<path d="M713.5 123C713.5 147.604 694.669 167.5 671.5 167.5C648.331 167.5 629.5 147.604 629.5 123C629.5 98.396 648.331 78.5 671.5 78.5C694.669 78.5 713.5 98.396 713.5 123Z" fill="#B90F0F"/>
<path d="M713.5 123C713.5 147.604 694.669 167.5 671.5 167.5C648.331 167.5 629.5 147.604 629.5 123C629.5 98.396 648.331 78.5 671.5 78.5C694.669 78.5 713.5 98.396 713.5 123Z" fill="#B90F0F"/>
<path d="M713.5 123C713.5 147.604 694.669 167.5 671.5 167.5C648.331 167.5 629.5 147.604 629.5 123C629.5 98.396 648.331 78.5 671.5 78.5C694.669 78.5 713.5 98.396 713.5 123Z" stroke="black"/>
<g filter="url(#filter12_d_0_1)">
<path d="M779 231.022C779 255.875 759.972 276.022 736.5 276.022C713.028 276.022 694 255.875 694 231.022C694 206.169 713.028 186.022 736.5 186.022C759.972 186.022 779 206.169 779 231.022Z" fill="#B90F0F"/>
<path d="M779 231.022C779 255.875 759.972 276.022 736.5 276.022C713.028 276.022 694 255.875 694 231.022C694 206.169 713.028 186.022 736.5 186.022C759.972 186.022 779 206.169 779 231.022Z" fill="#B90F0F"/>
<path d="M779 231.022C779 255.875 759.972 276.022 736.5 276.022C713.028 276.022 694 255.875 694 231.022C694 206.169 713.028 186.022 736.5 186.022C759.972 186.022 779 206.169 779 231.022Z" fill="#B90F0F"/>
<path d="M778.5 231.022C778.5 255.626 759.669 275.522 736.5 275.522C713.331 275.522 694.5 255.626 694.5 231.022C694.5 206.418 713.331 186.522 736.5 186.522C759.669 186.522 778.5 206.418 778.5 231.022Z" stroke="black"/>
</g>
<path d="M841.5 131C841.5 155.604 822.669 175.5 799.5 175.5C776.331 175.5 757.5 155.604 757.5 131C757.5 106.396 776.331 86.5 799.5 86.5C822.669 86.5 841.5 106.396 841.5 131Z" fill="#B90F0F"/>
<path d="M841.5 131C841.5 155.604 822.669 175.5 799.5 175.5C776.331 175.5 757.5 155.604 757.5 131C757.5 106.396 776.331 86.5 799.5 86.5C822.669 86.5 841.5 106.396 841.5 131Z" fill="#B90F0F"/>
<path d="M841.5 131C841.5 155.604 822.669 175.5 799.5 175.5C776.331 175.5 757.5 155.604 757.5 131C757.5 106.396 776.331 86.5 799.5 86.5C822.669 86.5 841.5 106.396 841.5 131Z" fill="#B90F0F"/>
<path d="M841.5 131C841.5 155.604 822.669 175.5 799.5 175.5C776.331 175.5 757.5 155.604 757.5 131C757.5 106.396 776.331 86.5 799.5 86.5C822.669 86.5 841.5 106.396 841.5 131Z" stroke="black"/>
<ellipse cx="949.5" cy="213" rx="42.5" ry="45" fill="#B90F0F"/>
<ellipse cx="949.5" cy="213" rx="42.5" ry="45" fill="#B90F0F"/>
<ellipse cx="949.5" cy="213" rx="42.5" ry="45" fill="#B90F0F"/>
<path d="M991.5 213C991.5 237.604 972.669 257.5 949.5 257.5C926.331 257.5 907.5 237.604 907.5 213C907.5 188.396 926.331 168.5 949.5 168.5C972.669 168.5 991.5 188.396 991.5 213Z" fill="#B90F0F"/>
<path d="M991.5 213C991.5 237.604 972.669 257.5 949.5 257.5C926.331 257.5 907.5 237.604 907.5 213C907.5 188.396 926.331 168.5 949.5 168.5C972.669 168.5 991.5 188.396 991.5 213Z" fill="#B90F0F"/>
<path d="M991.5 213C991.5 237.604 972.669 257.5 949.5 257.5C926.331 257.5 907.5 237.604 907.5 213C907.5 188.396 926.331 168.5 949.5 168.5C972.669 168.5 991.5 188.396 991.5 213Z" fill="#B90F0F"/>
<path d="M991.5 213C991.5 237.604 972.669 257.5 949.5 257.5C926.331 257.5 907.5 237.604 907.5 213C907.5 188.396 926.331 168.5 949.5 168.5C972.669 168.5 991.5 188.396 991.5 213Z" stroke="black"/>
<path d="M496 101L741.5 278" stroke="black" stroke-width="5"/>
<path d="M992 101L741.5 278" stroke="black" stroke-width="5"/>
<path d="M741.5 13.5V278" stroke="black" stroke-width="5"/>
</g>
<g filter="url(#filter13_d_0_1)">
<path d="M533.732 450C533.732 443.373 539.104 438 545.732 438H575.449V602.563C575.449 613.609 566.495 622.563 555.449 622.563H553.732C542.686 622.563 533.732 613.609 533.732 602.563V450Z" fill="#9BC58F"/>
<path d="M575.449 438L617.166 438V521.535V605.069C617.166 614.731 608.677 622.563 598.204 622.563H594.411C583.939 622.563 575.449 614.731 575.449 605.069V438Z" fill="white"/>
<path d="M617.166 438H658.884V605.069C658.884 614.731 650.394 622.563 639.921 622.563H636.129C625.656 622.563 617.166 614.731 617.166 605.069V521.535V438Z" fill="#D85943"/>
<path d="M658.884 438H700.601V605.069C700.601 614.731 692.111 622.563 681.639 622.563H677.846C667.373 622.563 658.884 614.731 658.884 605.069V438Z" fill="white"/>
<path d="M700.601 438L742.318 438V605.069C742.318 614.731 733.829 622.563 723.356 622.563H719.564C709.091 622.563 700.601 614.731 700.601 605.069V438Z" fill="#9BC58F"/>
<path d="M742.318 438H784.036V605.069C784.036 614.731 775.546 622.563 765.073 622.563H761.281C750.808 622.563 742.318 614.731 742.318 605.069V438Z" fill="white"/>
<path d="M784.036 438L825.753 438V605.069C825.753 614.731 817.263 622.563 806.791 622.563H802.998C792.526 622.563 784.036 614.731 784.036 605.069V438Z" fill="#D85943"/>
<path d="M825.753 438L867.47 438V521.535V605.069C867.47 614.731 858.981 622.563 848.508 622.563H844.716C834.243 622.563 825.753 614.731 825.753 605.069V438Z" fill="white"/>
<path d="M867.47 438L909.188 438V605.069C909.188 614.731 900.698 622.563 890.225 622.563H886.433C875.96 622.563 867.47 614.731 867.47 605.069V521.535V438Z" fill="#9BC58F"/>
<path d="M909.188 438L938.905 438C945.533 438 950.905 443.373 950.905 450V605.069C950.905 614.731 942.415 622.563 931.943 622.563H928.15C917.678 622.563 909.188 614.731 909.188 605.069V438Z" fill="white"/>
<path d="M656.384 440.5V605.069C656.384 613.164 649.207 620.063 639.921 620.063H636.129C626.843 620.063 619.666 613.164 619.666 605.069V521.535V440.5H656.384ZM614.666 521.535V605.069C614.666 613.164 607.489 620.063 598.204 620.063H594.411C585.126 620.063 577.949 613.164 577.949 605.069V602.563V440.5L614.666 440.5V521.535ZM545.732 440.5H572.949V602.563C572.949 612.228 565.114 620.063 555.449 620.063H553.732C544.067 620.063 536.232 612.228 536.232 602.563V450C536.232 444.753 540.485 440.5 545.732 440.5ZM661.384 605.069V440.5H698.101V605.069C698.101 613.164 690.924 620.063 681.639 620.063H677.846C668.561 620.063 661.384 613.164 661.384 605.069ZM703.101 605.069V440.5L739.818 440.5V605.069C739.818 613.164 732.641 620.063 723.356 620.063H719.564C710.278 620.063 703.101 613.164 703.101 605.069ZM744.818 605.069V440.5H781.536V605.069C781.536 613.164 774.359 620.063 765.073 620.063H761.281C751.995 620.063 744.818 613.164 744.818 605.069ZM786.536 605.069V440.5L823.253 440.5V605.069C823.253 613.164 816.076 620.063 806.791 620.063H802.998C793.713 620.063 786.536 613.164 786.536 605.069ZM828.253 605.069V440.5L864.97 440.5V521.535V605.069C864.97 613.164 857.794 620.063 848.508 620.063H844.716C835.43 620.063 828.253 613.164 828.253 605.069ZM869.97 521.535V440.5L906.688 440.5V605.069C906.688 613.164 899.511 620.063 890.225 620.063H886.433C877.147 620.063 869.97 613.164 869.97 605.069V521.535ZM911.688 605.069V440.5L938.905 440.5C944.152 440.5 948.405 444.753 948.405 450V605.069C948.405 613.164 941.228 620.063 931.943 620.063H928.15C918.865 620.063 911.688 613.164 911.688 605.069Z" stroke="black" stroke-width="5"/>
<path d="M535.024 451.908V606.719C534.385 614.501 527.882 620.5 520.064 620.5H514.295H501.628C500.448 620.5 499.27 620.381 498.114 620.143L494.359 619.374C492.739 619.042 491.175 618.482 489.712 617.711L488.455 617.048C486.707 616.126 485.06 615.026 483.539 613.763L483.407 613.654C482.176 612.631 481.09 611.444 480.181 610.126L479.766 609.524C478.988 608.397 478.346 607.182 477.851 605.905L477.68 605.463C476.9 603.448 476.5 601.306 476.5 599.146V597.196V597.196V597.196V597.195V597.195V597.194V597.193V597.192V597.191V597.19V597.188V597.187V597.185V597.184V597.182V597.18V597.178V597.175V597.173V597.171V597.168V597.165V597.163V597.16V597.157V597.153V597.15V597.147V597.143V597.139V597.136V597.132V597.128V597.124V597.119V597.115V597.11V597.106V597.101V597.096V597.091V597.086V597.081V597.076V597.07V597.065V597.059V597.053V597.048V597.042V597.036V597.029V597.023V597.017V597.01V597.004V596.997V596.99V596.983V596.976V596.969V596.962V596.954V596.947V596.939V596.931V596.924V596.916V596.908V596.9V596.892V596.883V596.875V596.866V596.858V596.849V596.84V596.831V596.822V596.813V596.804V596.795V596.785V596.776V596.766V596.756V596.747V596.737V596.727V596.717V596.706V596.696V596.686V596.675V596.665V596.654V596.643V596.633V596.622V596.611V596.6V596.588V596.577V596.566V596.554V596.543V596.531V596.519V596.508V596.496V596.484V596.472V596.459V596.447V596.435V596.422V596.41V596.397V596.385V596.372V596.359V596.346V596.333V596.32V596.307V596.294V596.28V596.267V596.253V596.24V596.226V596.212V596.199V596.185V596.171V596.157V596.143V596.128V596.114V596.1V596.085V596.071V596.056V596.042V596.027V596.012V595.997V595.982V595.967V595.952V595.937V595.922V595.906V595.891V595.876V595.86V595.845V595.829V595.813V595.797V595.782V595.766V595.75V595.734V595.718V595.701V595.685V595.669V595.652V595.636V595.619V595.603V595.586V595.57V595.553V595.536V595.519V595.502V595.485V595.468V595.451V595.434V595.417V595.399V595.382V595.365V595.347V595.33V595.312V595.294V595.277V595.259V595.241V595.223V595.205V595.187V595.169V595.151V595.133V595.115V595.097V595.078V595.06V595.042V595.023V595.005V594.986V594.968V594.949V594.93V594.912V594.893V594.874V594.855V594.836V594.817V594.798V594.779V594.76V594.741V594.722V594.703V594.683V594.664V594.645V594.625V594.606V594.586V594.567V594.547V594.528V594.508V594.488V594.468V594.449V594.429V594.409V594.389V594.369V594.349V594.329V594.309V594.289V594.269V594.249V594.229V594.209V594.188V594.168V594.148V594.128V594.107V594.087V594.066V594.046V594.025V594.005V593.984V593.964V593.943V593.923V593.902V593.881V593.86V593.84V593.819V593.798V593.777V593.756V593.736V593.715V593.694V593.673V593.652V593.631V593.61V593.589V593.568V593.547V593.526V593.505V593.483V593.462V593.441V593.42V593.399V593.377V593.356V593.335V593.314V593.292V593.271V593.25V593.228V593.207V593.186V593.164V593.143V593.121V593.1V593.078V593.057V593.035V593.014V592.992V592.971V592.949V592.928V592.906V592.885V592.863V592.842V592.82V592.799V592.777V592.755V592.734V592.712V592.691V592.669V592.647V592.626V592.604V592.582V592.561V592.539V592.517V592.496V592.474V592.453V592.431V592.409V592.388V592.366V592.344V592.323V592.301V592.279V592.258V592.236V592.214V592.193V592.171V592.149V592.128V592.106V592.085V592.063V592.041V592.02V591.998V591.977V591.955V591.933V591.912V591.89V591.869V591.847V591.826V591.804V591.783V591.761V591.74V591.718V591.697V591.675V591.654V591.632V591.611V591.59V591.568V591.547V591.526V591.504V591.483V591.462V591.44V591.419V591.398V591.377V591.355V591.334V591.313V591.292V591.271V591.25V591.229V591.208V591.186V591.165V591.144V591.123V591.103V591.082V591.061V591.04V591.019V590.998V590.977V590.957V590.936V590.915V590.894V590.874V590.853V590.832V590.812V590.791V590.771V590.75V590.73V590.709V590.689V590.668V590.648V590.628V590.608V590.587V590.567V590.547V590.527V590.507V590.487V590.466V590.446V590.426V590.407V590.387V590.367V590.347V590.327V590.307V590.288V590.268V590.248V590.229V590.209V590.19V590.17V590.151V590.131V590.112V590.093V590.074V590.054V590.035V590.016V589.997V589.978V589.959V589.94V589.921V589.902V589.883V589.865V589.846V589.827V589.809V589.79V589.772V589.753V589.735V589.716V589.698V589.68V589.662V589.643V589.625V589.607V589.589V589.571V589.553V589.536V589.518V589.5V589.482V589.465V589.447V589.43V589.412V589.395V589.378V589.36V589.343V589.326V589.309V589.292V589.275V589.258V589.241V589.224V589.208V589.191V589.174V589.158V589.141V589.125C476.506 589.102 476.514 589.075 476.522 589.045C476.586 588.82 476.688 588.489 476.833 588.043C477.121 587.156 477.55 585.901 478.108 584.315C479.222 581.148 480.826 576.716 482.781 571.383C486.69 560.719 491.992 546.486 497.558 531.628C508.69 501.914 520.871 469.722 525.069 458.64C525.986 456.219 527.292 454.036 528.985 452.057L530.278 450.546C531.798 448.77 533.656 447.319 535.741 446.275C535.266 448.109 535.024 450.001 535.024 451.908ZM476.469 589.246C476.47 589.244 476.47 589.241 476.471 589.238C476.464 589.276 476.461 589.282 476.469 589.246Z" fill="white" stroke="black" stroke-width="5"/>
<path d="M955.787 448.519L957.713 447.086L955.787 448.519L954.837 447.241C953.674 445.678 952.262 444.325 950.662 443.232C950.981 444.75 951.143 446.301 951.143 447.86V603.632C951.699 611.406 958.169 617.439 965.973 617.439H968.886H979.366C980.718 617.439 982.066 617.282 983.383 616.971L985.477 616.477L986.051 618.91L985.477 616.477C987.261 616.057 988.968 615.358 990.535 614.408L991.831 616.546L990.535 614.408L990.898 614.188C992.549 613.186 994.086 612.009 995.483 610.675C996.537 609.668 997.452 608.523 998.202 607.272L998.678 606.479C999.325 605.4 999.854 604.254 1000.26 603.061L1000.59 602.079C1001.19 600.28 1001.5 598.395 1001.5 596.497V594.073V594.072V594.072V594.072V594.071V594.07V594.069V594.068V594.067V594.066V594.065V594.063V594.062V594.06V594.058V594.056V594.054V594.052V594.049V594.047V594.044V594.042V594.039V594.036V594.033V594.03V594.026V594.023V594.019V594.016V594.012V594.008V594.004V594V593.995V593.991V593.987V593.982V593.977V593.972V593.967V593.962V593.957V593.952V593.946V593.941V593.935V593.93V593.924V593.918V593.912V593.905V593.899V593.893V593.886V593.879V593.873V593.866V593.859V593.852V593.845V593.837V593.83V593.823V593.815V593.807V593.799V593.792V593.783V593.775V593.767V593.759V593.75V593.742V593.733V593.725V593.716V593.707V593.698V593.689V593.679V593.67V593.661V593.651V593.641V593.632V593.622V593.612V593.602V593.592V593.582V593.571V593.561V593.551V593.54V593.529V593.518V593.508V593.497V593.486V593.475V593.463V593.452V593.441V593.429V593.418V593.406V593.394V593.382V593.37V593.358V593.346V593.334V593.322V593.309V593.297V593.284V593.272V593.259V593.246V593.233V593.22V593.207V593.194V593.181V593.168V593.154V593.141V593.127V593.114V593.1V593.086V593.073V593.059V593.045V593.031V593.016V593.002V592.988V592.973V592.959V592.944V592.93V592.915V592.9V592.886V592.871V592.856V592.841V592.826V592.81V592.795V592.78V592.764V592.749V592.733V592.718V592.702V592.686V592.67V592.655V592.639V592.623V592.606V592.59V592.574V592.558V592.541V592.525V592.509V592.492V592.475V592.459V592.442V592.425V592.408V592.391V592.374V592.357V592.34V592.323V592.306V592.289V592.271V592.254V592.236V592.219V592.201V592.184V592.166V592.148V592.131V592.113V592.095V592.077V592.059V592.041V592.023V592.004V591.986V591.968V591.95V591.931V591.913V591.894V591.876V591.857V591.839V591.82V591.801V591.782V591.764V591.745V591.726V591.707V591.688V591.669V591.65V591.631V591.611V591.592V591.573V591.554V591.534V591.515V591.495V591.476V591.456V591.437V591.417V591.397V591.378V591.358V591.338V591.318V591.299V591.279V591.259V591.239V591.219V591.199V591.179V591.159V591.138V591.118V591.098V591.078V591.058V591.037V591.017V590.996V590.976V590.956V590.935V590.915V590.894V590.874V590.853V590.832V590.812V590.791V590.77V590.75V590.729V590.708V590.687V590.666V590.645V590.625V590.604V590.583V590.562V590.541V590.52V590.499V590.478V590.457V590.435V590.414V590.393V590.372V590.351V590.33V590.308V590.287V590.266V590.245V590.223V590.202V590.181V590.159V590.138V590.116V590.095V590.074V590.052V590.031V590.009V589.988V589.966V589.945V589.923V589.902V589.88V589.859V589.837V589.816V589.794V589.772V589.751V589.729V589.708V589.686V589.664V589.643V589.621V589.599V589.578V589.556V589.534V589.513V589.491V589.469V589.448V589.426V589.404V589.383V589.361V589.339V589.317V589.296V589.274V589.252V589.231V589.209V589.187V589.165V589.144V589.122V589.1V589.079V589.057V589.035V589.014V588.992V588.97V588.949V588.927V588.905V588.884V588.862V588.84V588.819V588.797V588.775V588.754V588.732V588.711V588.689V588.668V588.646V588.624V588.603V588.581V588.56V588.538V588.517V588.495V588.474V588.453V588.431V588.41V588.388V588.367V588.346V588.324V588.303V588.282V588.26V588.239V588.218V588.197V588.175V588.154V588.133V588.112V588.091V588.069V588.048V588.027V588.006V587.985V587.964V587.943V587.922V587.901V587.88V587.86V587.839V587.818V587.797V587.776V587.755V587.735V587.714V587.693V587.673V587.652V587.632V587.611V587.59V587.57V587.55V587.529V587.509V587.488V587.468V587.448V587.427V587.407V587.387V587.367V587.347V587.327V587.307V587.287V587.267V587.247V587.227V587.207V587.187V587.167V587.147V587.128V587.108V587.088V587.069V587.049V587.03V587.01V586.991V586.971V586.952V586.933V586.913V586.894V586.875V586.856V586.837V586.818V586.799V586.78V586.761V586.742V586.723V586.705V586.686V586.667V586.649V586.63V586.612V586.593V586.575V586.556V586.538V586.52V586.502V586.483V586.465V586.447V586.429V586.411V586.393V586.376V586.358V586.34V586.323V586.305V586.287V586.27V586.252V586.235V586.218V586.201V586.183V586.166V586.149V586.132V586.115V586.098V586.081V586.065V586.048V586.031V586.015V585.998V585.982V585.965V585.949V585.939C1001.49 585.906 1001.48 585.865 1001.47 585.815C1001.41 585.583 1001.32 585.244 1001.2 584.793C1000.94 583.895 1000.56 582.627 1000.07 581.027C999.097 577.831 997.69 573.36 995.976 567.982C992.549 557.23 987.903 542.886 983.033 527.932C973.292 498.025 962.658 465.701 959.085 454.849C958.332 452.562 957.232 450.46 955.787 448.519ZM1001.52 586.033C1001.52 586.033 1001.52 586.032 1001.52 586.032C1001.53 586.067 1001.53 586.071 1001.52 586.033Z" fill="#D85943" stroke="black" stroke-width="5"/>
</g>
<defs>
<filter id="filter0_d_0_1" x="784" y="636" width="207.18" height="390" filterUnits="userSpaceOnUse" color-interpolation-filters="sRGB">
<feFlood flood-opacity="0" result="BackgroundImageFix"/>
<feColorMatrix in="SourceAlpha" type="matrix" values="0 0 0 0 0 0 0 0 0 0 0 0 0 0 0 0 0 0 127 0" result="hardAlpha"/>
<feOffset dy="4"/>
<feGaussianBlur stdDeviation="2"/>
<feComposite in2="hardAlpha" operator="out"/>
<feColorMatrix type="matrix" values="0 0 0 0 0 0 0 0 0 0 0 0 0 0 0 0 0 0 0.25 0"/>
<feBlend mode="normal" in2="BackgroundImageFix" result="effect1_dropShadow_0_1"/>
<feBlend mode="normal" in="SourceGraphic" in2="effect1_dropShadow_0_1" result="shape"/>
</filter>
<filter id="filter1_d_0_1" x="784" y="636" width="207.18" height="408" filterUnits="userSpaceOnUse" color-interpolation-filters="sRGB">
<feFlood flood-opacity="0" result="BackgroundImageFix"/>
<feColorMatrix in="SourceAlpha" type="matrix" values="0 0 0 0 0 0 0 0 0 0 0 0 0 0 0 0 0 0 127 0" result="hardAlpha"/>
<feOffset dy="22"/>
<feGaussianBlur stdDeviation="2"/>
<feComposite in2="hardAlpha" operator="out"/>
<feColorMatrix type="matrix" values="0 0 0 0 0 0 0 0 0 0 0 0 0 0 0 0 0 0 0.25 0"/>
<feBlend mode="normal" in2="BackgroundImageFix" result="effect1_dropShadow_0_1"/>
<feBlend mode="normal" in="SourceGraphic" in2="effect1_dropShadow_0_1" result="shape"/>
</filter>
<filter id="filter2_d_0_1" x="509.05" y="652" width="229.132" height="136.984" filterUnits="userSpaceOnUse" color-interpolation-filters="sRGB">
<feFlood flood-opacity="0" result="BackgroundImageFix"/>
<feColorMatrix in="SourceAlpha" type="matrix" values="0 0 0 0 0 0 0 0 0 0 0 0 0 0 0 0 0 0 127 0" result="hardAlpha"/>
<feOffset dy="22"/>
<feGaussianBlur stdDeviation="2"/>
<feComposite in2="hardAlpha" operator="out"/>
<feColorMatrix type="matrix" values="0 0 0 0 0 0 0 0 0 0 0 0 0 0 0 0 0 0 0.25 0"/>
<feBlend mode="normal" in2="BackgroundImageFix" result="effect1_dropShadow_0_1"/>
<feBlend mode="normal" in="SourceGraphic" in2="effect1_dropShadow_0_1" result="shape"/>
</filter>
<filter id="filter3_d_0_1" x="362" y="413" width="754" height="55" filterUnits="userSpaceOnUse" color-interpolation-filters="sRGB">
<feFlood flood-opacity="0" result="BackgroundImageFix"/>
<feColorMatrix in="SourceAlpha" type="matrix" values="0 0 0 0 0 0 0 0 0 0 0 0 0 0 0 0 0 0 127 0" result="hardAlpha"/>
<feOffset dy="25"/>
<feGaussianBlur stdDeviation="2"/>
<feComposite in2="hardAlpha" operator="out"/>
<feColorMatrix type="matrix" values="0 0 0 0 0 0 0 0 0 0 0 0 0 0 0 0 0 0 0.25 0"/>
<feBlend mode="normal" in2="BackgroundImageFix" result="effect1_dropShadow_0_1"/>
<feBlend mode="normal" in="SourceGraphic" in2="effect1_dropShadow_0_1" result="shape"/>
</filter>
<filter id="filter4_i_0_1" x="383" y="854" width="104" height="166" filterUnits="userSpaceOnUse" color-interpolation-filters="sRGB">
<feFlood flood-opacity="0" result="BackgroundImageFix"/>
<feBlend mode="normal" in="SourceGraphic" in2="BackgroundImageFix" result="shape"/>
<feColorMatrix in="SourceAlpha" type="matrix" values="0 0 0 0 0 0 0 0 0 0 0 0 0 0 0 0 0 0 127 0" result="hardAlpha"/>
<feOffset dx="43" dy="4"/>
<feGaussianBlur stdDeviation="2"/>
<feComposite in2="hardAlpha" operator="arithmetic" k2="-1" k3="1"/>
<feColorMatrix type="matrix" values="0 0 0 0 0 0 0 0 0 0 0 0 0 0 0 0 0 0 0.25 0"/>
<feBlend mode="normal" in2="shape" result="effect1_innerShadow_0_1"/>
</filter>
<filter id="filter5_i_0_1" x="997" y="854" width="104" height="166" filterUnits="userSpaceOnUse" color-interpolation-filters="sRGB">
<feFlood flood-opacity="0" result="BackgroundImageFix"/>
<feBlend mode="normal" in="SourceGraphic" in2="BackgroundImageFix" result="shape"/>
<feColorMatrix in="SourceAlpha" type="matrix" values="0 0 0 0 0 0 0 0 0 0 0 0 0 0 0 0 0 0 127 0" result="hardAlpha"/>
<feOffset dx="41" dy="4"/>
<feGaussianBlur stdDeviation="2"/>
<feComposite in2="hardAlpha" operator="arithmetic" k2="-1" k3="1"/>
<feColorMatrix type="matrix" values="0 0 0 0 0 0 0 0 0 0 0 0 0 0 0 0 0 0 0.25 0"/>
<feBlend mode="normal" in2="shape" result="effect1_innerShadow_0_1"/>
</filter>
<filter id="filter6_i_0_1" x="379.405" y="641.913" width="110.35" height="218.587" filterUnits="userSpaceOnUse" color-interpolation-filters="sRGB">
<feFlood flood-opacity="0" result="BackgroundImageFix"/>
<feBlend mode="normal" in="SourceGraphic" in2="BackgroundImageFix" result="shape"/>
<feColorMatrix in="SourceAlpha" type="matrix" values="0 0 0 0 0 0 0 0 0 0 0 0 0 0 0 0 0 0 127 0" result="hardAlpha"/>
<feOffset dx="41" dy="4"/>
<feGaussianBlur stdDeviation="2"/>
<feComposite in2="hardAlpha" operator="arithmetic" k2="-1" k3="1"/>
<feColorMatrix type="matrix" values="0 0 0 0 0 0 0 0 0 0 0 0 0 0 0 0 0 0 0.25 0"/>
<feBlend mode="normal" in2="shape" result="effect1_innerShadow_0_1"/>
</filter>
<filter id="filter7_i_0_1" x="993.405" y="642.413" width="110.35" height="218.587" filterUnits="userSpaceOnUse" color-interpolation-filters="sRGB">
<feFlood flood-opacity="0" result="BackgroundImageFix"/>
<feBlend mode="normal" in="SourceGraphic" in2="BackgroundImageFix" result="shape"/>
<feColorMatrix in="SourceAlpha" type="matrix" values="0 0 0 0 0 0 0 0 0 0 0 0 0 0 0 0 0 0 127 0" result="hardAlpha"/>
<feOffset dx="41" dy="4"/>
<feGaussianBlur stdDeviation="2"/>
<feComposite in2="hardAlpha" operator="arithmetic" k2="-1" k3="1"/>
<feColorMatrix type="matrix" values="0 0 0 0 0 0 0 0 0 0 0 0 0 0 0 0 0 0 0.25 0"/>
<feBlend mode="normal" in2="shape" result="effect1_innerShadow_0_1"/>
</filter>
<filter id="filter8_d_0_1" x="497.379" y="322.818" width="489.937" height="95.1818" filterUnits="userSpaceOnUse" color-interpolation-filters="sRGB">
<feFlood flood-opacity="0" result="BackgroundImageFix"/>
<feColorMatrix in="SourceAlpha" type="matrix" values="0 0 0 0 0 0 0 0 0 0 0 0 0 0 0 0 0 0 127 0" result="hardAlpha"/>
<feOffset dy="17"/>
<feGaussianBlur stdDeviation="2"/>
<feComposite in2="hardAlpha" operator="out"/>
<feColorMatrix type="matrix" values="0 0 0 0 0 0 0 0 0 0 0 0 0 0 0 0 0 0 0.25 0"/>
<feBlend mode="normal" in2="BackgroundImageFix" result="effect1_dropShadow_0_1"/>
<feBlend mode="normal" in="SourceGraphic" in2="effect1_dropShadow_0_1" result="shape"/>
</filter>
<filter id="filter9_d_0_1" x="751" y="658" width="32" height="203" filterUnits="userSpaceOnUse" color-interpolation-filters="sRGB">
<feFlood flood-opacity="0" result="BackgroundImageFix"/>
<feColorMatrix in="SourceAlpha" type="matrix" values="0 0 0 0 0 0 0 0 0 0 0 0 0 0 0 0 0 0 127 0" result="hardAlpha"/>
<feOffset dy="30"/>
<feGaussianBlur stdDeviation="2"/>
<feComposite in2="hardAlpha" operator="out"/>
<feColorMatrix type="matrix" values="0 0 0 0 0 0 0 0 0 0 0 0 0 0 0 0 0 0 0.25 0"/>
<feBlend mode="normal" in2="BackgroundImageFix" result="effect1_dropShadow_0_1"/>
<feBlend mode="normal" in="SourceGraphic" in2="effect1_dropShadow_0_1" result="shape"/>
</filter>
<filter id="filter10_d_0_1" x="361" y="955" width="433" height="92" filterUnits="userSpaceOnUse" color-interpolation-filters="sRGB">
<feFlood flood-opacity="0" result="BackgroundImageFix"/>
<feColorMatrix in="SourceAlpha" type="matrix" values="0 0 0 0 0 0 0 0 0 0 0 0 0 0 0 0 0 0 127 0" result="hardAlpha"/>
<feOffset dx="-1" dy="30"/>
<feGaussianBlur stdDeviation="2"/>
<feComposite in2="hardAlpha" operator="out"/>
<feColorMatrix type="matrix" values="0 0 0 0 0 0 0 0 0 0 0 0 0 0 0 0 0 0 1 0"/>
<feBlend mode="normal" in2="BackgroundImageFix" result="effect1_dropShadow_0_1"/>
<feBlend mode="normal" in="SourceGraphic" in2="effect1_dropShadow_0_1" result="shape"/>
</filter>
<filter id="filter11_d_0_1" x="784" y="955" width="332" height="92" filterUnits="userSpaceOnUse" color-interpolation-filters="sRGB">
<feFlood flood-opacity="0" result="BackgroundImageFix"/>
<feColorMatrix in="SourceAlpha" type="matrix" values="0 0 0 0 0 0 0 0 0 0 0 0 0 0 0 0 0 0 127 0" result="hardAlpha"/>
<feOffset dy="30"/>
<feGaussianBlur stdDeviation="2"/>
<feComposite in2="hardAlpha" operator="out"/>
<feColorMatrix type="matrix" values="0 0 0 0 0 0 0 0 0 0 0 0 0 0 0 0 0 0 1 0"/>
<feBlend mode="normal" in2="BackgroundImageFix" result="effect1_dropShadow_0_1"/>
<feBlend mode="normal" in="SourceGraphic" in2="effect1_dropShadow_0_1" result="shape"/>
</filter>
<filter id="filter12_d_0_1" x="690" y="186.022" width="93" height="98" filterUnits="userSpaceOnUse" color-interpolation-filters="sRGB">
<feFlood flood-opacity="0" result="BackgroundImageFix"/>
<feColorMatrix in="SourceAlpha" type="matrix" values="0 0 0 0 0 0 0 0 0 0 0 0 0 0 0 0 0 0 127 0" result="hardAlpha"/>
<feOffset dy="4"/>
<feGaussianBlur stdDeviation="2"/>
<feComposite in2="hardAlpha" operator="out"/>
<feColorMatrix type="matrix" values="0 0 0 0 0 0 0 0 0 0 0 0 0 0 0 0 0 0 0.25 0"/>
<feBlend mode="normal" in2="BackgroundImageFix" result="effect1_dropShadow_0_1"/>
<feBlend mode="normal" in="SourceGraphic" in2="effect1_dropShadow_0_1" result="shape"/>
</filter>
<filter id="filter13_d_0_1" x="470" y="438" width="538" height="205" filterUnits="userSpaceOnUse" color-interpolation-filters="sRGB">
<feFlood flood-opacity="0" result="BackgroundImageFix"/>
<feColorMatrix in="SourceAlpha" type="matrix" values="0 0 0 0 0 0 0 0 0 0 0 0 0 0 0 0 0 0 127 0" result="hardAlpha"/>
<feOffset dy="16"/>
<feGaussianBlur stdDeviation="2"/>
<feComposite in2="hardAlpha" operator="out"/>
<feColorMatrix type="matrix" values="0 0 0 0 0 0 0 0 0 0 0 0 0 0 0 0 0 0 0.25 0"/>
<feBlend mode="normal" in2="BackgroundImageFix" result="effect1_dropShadow_0_1"/>
<feBlend mode="normal" in="SourceGraphic" in2="effect1_dropShadow_0_1" result="shape"/>
</filter>
<clipPath id="clip0_0_1">
<rect width="1440" height="1024" fill="white"/>
</clipPath>
</defs>
</svg>
